<?xml version="1.0" encoding="utf-8"?>
<!-- Generator: Adobe Illustrator 25.2.1, SVG Export Plug-In . SVG Version: 6.00 Build 0)  -->
<svg version="1.1" id="Layer_1" xmlns="http://www.w3.org/2000/svg" xmlns:xlink="http://www.w3.org/1999/xlink" x="0px" y="0px"
	 viewBox="0 0 400 200" style="enable-background:new 0 0 400 200;" xml:space="preserve">
<style type="text/css">
	.st0{fill:#BA9F67;}
	.st1{fill:#1E3C20;}
	.st2{fill:#9A8555;}
</style>
<path class="st0" d="M361.46,104.42c-0.51-1.55-1.39-3.04-2.29-4.47c-17.92-28.64-44.58-53.09-75.96-71.47
	C260.45,15.13,234.8,4.81,207.49,1.28c-23.53-3.04-48.41-0.78-69.93,8.17c-18.59,7.73-34.22,22.11-46.62,35.96
	c-4.47,4.99-9.96,10.78-17.3,10.33c-3.77-0.23-7-2-10.2-3.55c-2.84-1.38-4.92-3.56-8.54-2.79c-0.38,0.08-0.76,0.2-1.05,0.42
	c-0.77,0.59-0.73,1.67-0.68,2.47c0.31,4.55,0.88,9.11,0.97,13.67c0.12,5.86,0.03,11.72-0.26,17.58c-0.58,11.71-1.98,23.4-4.19,34.97
	c-0.89,4.63-1.9,9.24-3.04,13.82c-0.58,2.34-1.06,5.12,0.92,6.82c3.65,3.13,9.2-1.17,13.9-3.03c6.34-2.51,14.08,0.1,18.98,4.35
	c4.9,4.25,7.76,9.85,11.23,15.02c17.49,26.08,52.21,41.89,87.34,44.18c35.13,2.3,70.3-7.71,100.12-23.71s54.81-37.74,77.72-60.57
	c2.3-2.3,4.7-4.82,4.99-7.83C361.97,106.49,361.8,105.44,361.46,104.42z"/>
<g>
	<g>
		<g>
			<g>
				<path class="st1" d="M213.38,145.9c-0.7-0.87-1.65-1.3-2.87-1.3c-1.06,0-1.95,0.35-2.66,1.04c-0.71,0.7-1.06,1.56-1.06,2.6
					c0,1.05,0.35,1.92,1.05,2.61c0.7,0.69,1.58,1.03,2.65,1.03c1.34,0,2.37-0.5,3.09-1.49l1.02,0.89c-0.49,0.6-1.09,1.08-1.8,1.43
					c-0.72,0.35-1.49,0.52-2.31,0.52c-1.43,0-2.63-0.48-3.6-1.44c-0.97-0.96-1.46-2.14-1.46-3.54c0-1.42,0.49-2.6,1.46-3.55
					c0.97-0.95,2.18-1.43,3.62-1.43c1.57,0,2.85,0.55,3.82,1.65L213.38,145.9z"/>
				<path class="st1" d="M224.47,143.46h1.32v9.56h-1.32v-1.32c-0.85,1.01-1.97,1.51-3.36,1.51c-1.39,0-2.55-0.48-3.48-1.44
					c-0.93-0.96-1.4-2.15-1.4-3.58c0-1.4,0.46-2.58,1.39-3.52c0.92-0.94,2.08-1.42,3.47-1.42c1.42,0,2.54,0.49,3.38,1.48V143.46z
					 M221.25,151.92c0.68,0,1.31-0.16,1.88-0.47c0.57-0.31,1.02-0.73,1.35-1.24v-3.95c-0.34-0.52-0.8-0.94-1.37-1.24
					c-0.57-0.3-1.19-0.45-1.86-0.45c-1.05,0-1.93,0.35-2.64,1.05c-0.71,0.7-1.06,1.57-1.06,2.61c0,1.05,0.35,1.93,1.06,2.64
					S220.2,151.92,221.25,151.92z"/>
				<path class="st1" d="M234.21,143.46v1.28h-3.11v8.28h-1.32v-8.28h-1.79v-1.28h1.79v-2.03c0-1.02,0.28-1.84,0.84-2.45
					c0.56-0.61,1.31-0.91,2.25-0.91c0.34,0,0.65,0.04,0.92,0.12l-0.16,1.28c-0.24-0.07-0.48-0.1-0.73-0.1
					c-0.54,0-0.97,0.19-1.31,0.57c-0.33,0.38-0.5,0.89-0.5,1.51v2.01H234.21z"/>
				<path class="st1" d="M244.69,148.2v0.24h-8.28c0.07,1.01,0.46,1.84,1.17,2.49c0.71,0.65,1.6,0.97,2.67,0.97
					c1.15,0,2.26-0.51,3.32-1.53l0.89,1c-1.27,1.23-2.67,1.85-4.19,1.85c-1.49,0-2.72-0.47-3.69-1.42
					c-0.96-0.94-1.45-2.14-1.45-3.58c0-1.43,0.47-2.61,1.41-3.55c0.94-0.94,2.1-1.41,3.49-1.41c1.38,0,2.5,0.46,3.36,1.39
					C244.26,145.57,244.69,146.76,244.69,148.2z M240.03,144.48c-0.88,0-1.64,0.26-2.28,0.78c-0.64,0.52-1.06,1.2-1.24,2.04h6.85
					c-0.17-0.87-0.55-1.55-1.14-2.06C241.62,144.73,240.9,144.48,240.03,144.48z M242.06,138.54l-1.46,2.83h-1.34l1.26-2.83H242.06z
					"/>
			</g>
			<path class="st1" d="M251.37,147.43c0.22-0.22,0.49-0.32,0.82-0.32c0.33,0,0.6,0.11,0.82,0.32c0.22,0.22,0.32,0.48,0.32,0.8
				c0,0.33-0.11,0.6-0.32,0.82c-0.22,0.22-0.49,0.32-0.82,0.32c-0.33,0-0.6-0.11-0.82-0.32c-0.22-0.22-0.32-0.49-0.32-0.82
				C251.04,147.91,251.15,147.65,251.37,147.43z"/>
			<g>
				<path class="st1" d="M272.17,143.46h1.4l-2.81,9.56h-1.38l-2.73-7.48l-2.75,7.48h-1.38l-2.83-9.56h1.48l2.18,7.79l2.69-7.59
					h1.24l2.71,7.63L272.17,143.46z"/>
				<path class="st1" d="M284.56,148.2v0.24h-8.28c0.07,1.01,0.46,1.84,1.17,2.49c0.71,0.65,1.6,0.97,2.67,0.97
					c1.15,0,2.26-0.51,3.32-1.53l0.89,1c-1.27,1.23-2.67,1.85-4.19,1.85c-1.49,0-2.72-0.47-3.69-1.42
					c-0.96-0.94-1.45-2.14-1.45-3.58c0-1.43,0.47-2.61,1.41-3.55c0.94-0.94,2.1-1.41,3.49-1.41c1.38,0,2.5,0.46,3.36,1.39
					C284.13,145.57,284.56,146.76,284.56,148.2z M279.9,144.48c-0.88,0-1.64,0.26-2.28,0.78c-0.64,0.52-1.06,1.2-1.24,2.04h6.85
					c-0.17-0.87-0.55-1.55-1.14-2.06C281.49,144.73,280.77,144.48,279.9,144.48z"/>
				<path class="st1" d="M286.95,139c0.22-0.22,0.49-0.32,0.82-0.32c0.33,0,0.6,0.11,0.82,0.32c0.22,0.22,0.32,0.48,0.32,0.8
					c0,0.33-0.11,0.6-0.32,0.82c-0.22,0.22-0.49,0.32-0.82,0.32c-0.33,0-0.6-0.11-0.82-0.32c-0.22-0.22-0.32-0.49-0.32-0.82
					C286.63,139.48,286.74,139.22,286.95,139z"/>
				<rect x="287.08" y="143.46" class="st1" width="1.32" height="9.56"/>
				<path class="st1" d="M296.42,143.26c1.14,0,2.07,0.35,2.79,1.06c0.72,0.71,1.08,1.72,1.08,3.03v5.67h-1.32v-5.57
					c0-0.94-0.26-1.66-0.79-2.15c-0.52-0.49-1.19-0.74-1.99-0.74c-0.64,0-1.26,0.15-1.84,0.44c-0.58,0.3-1.04,0.7-1.37,1.21v6.81
					h-1.32v-9.56H293v1.34C293.8,143.77,294.94,143.26,296.42,143.26z"/>
			</g>
		</g>
		<g>
			<path class="st1" d="M190.24,83.73c-1.24,0-2.06,1.34-2.68,2.17c-5.78,8.15-10.21,17.22-15.06,25.89
				c-1.75-7.63-6.09-19.08-11.45-24.86c-0.83-0.93-1.75-1.75-3.09-1.75c-1.75,0-4.02,2.27-4.02,4.02c0,0.82,1.44,2.17,1.44,2.17
				c4.54,5.98,9.8,21.76,11.66,29.19c0,0,0.41,3.82,3.09,3.82c2.48,0,3.1-3.51,3.1-3.51c1.03-4.02,15.88-29.09,19.08-33.32
				c0.31-0.41,0.72-0.83,0.72-1.44C193.03,84.76,191.48,83.73,190.24,83.73z"/>
			<path class="st1" d="M207.98,81.26c2.79,0,4.95-2.79,4.95-5.47c0-2.06-1.44-3.92-3.61-3.92c-2.79,0-4.85,2.89-4.85,5.47
				C204.48,79.4,205.82,81.26,207.98,81.26z"/>
			<path class="st1" d="M290.6,83.21c-8.84,0-14.95,8.83-17.68,17.62c-0.31,0.42-0.57,0.87-0.78,1.25
				c-2.37,4.54-8.77,14.23-14.23,14.23c-3.2,0-3.3-3.82-3.3-6.19V95.69c0-2.99-0.1-10-4.13-10c-5.36,0-17.95,18.36-17.95,18.36
				c0.52-4.02,1.34-8.05,2.79-11.86c1.24-3.3,2.68-7.53,2.68-11.04c0-2.17-0.72-3.51-3.09-3.51c-2.58,0-5.47,2.48-5.98,4.95
				c-0.72,3.2-1.24,6.5-1.86,9.7c-0.79,3.8-1.67,7.79-2.46,11.83c-3.56,5.41-10.71,15.3-15.79,15.3c-3.51,0-3.61-7.01-3.61-9.39
				c0-3.09,0.31-6.19,0.93-9.18c0.72-3.09,3.1-8.15,3.1-10.93c0-1.65-0.83-2.27-2.37-2.27c-4.33,0-6.19,2.89-7.43,6.6
				c-1.13,3.61-2.16,8.87-2.16,12.69c0,5.98,1.24,17.64,9.39,17.64c5.59,0,12.03-6.38,16.5-11.88c-0.5,3.64-0.83,7.25-0.83,10.74
				c0,1.34,0.72,2.58,2.17,2.58c1.96,0,3.4-1.65,4.23-3.3c2.37-5.16,4.74-10.21,7.73-15.06c2.48-4.02,5.57-8.77,8.97-12.07
				c0.52-0.52,1.65-1.65,2.37-1.65c0.83,0,0.93,1.55,0.93,2.06l-0.41,11.76c0,0.52,0,1.03,0,1.55c0,5.16,1.14,12.07,7.53,12.07
				c5.33,0,11.3-5.29,15.48-10.68c0.04,6.16,2.53,13.56,9.9,13.56c2.89,0,5.67-1.13,8.05-2.68c7.84-5.26,11.04-15.16,11.04-24.24
				C300.3,91.16,298.24,83.21,290.6,83.21z M288.64,117.25c-1.34,1.03-2.99,1.96-4.74,1.96c-4.23,0-5.16-5.16-5.16-8.46
				c0-6.19,4.13-20.73,11.86-20.73c4.44,0,5.36,5.88,5.36,9.28C295.97,105.6,293.8,113.23,288.64,117.25z"/>
		</g>
		<path class="st1" d="M221.04,34.92c-0.09,0.02-0.18,0.06-0.27,0.12c-0.18,0.11-1.07,1.33-1.07,1.52
			c-2.25,2.91-4.65,5.54-7.18,7.89c-2.54,2.35-5.1,4.23-7.68,5.64c-2.59,1.41-4.86,2.11-6.83,2.11c-2.07,0-3.64-0.89-4.72-2.68
			c-1.08-1.78-1.34-4.74-0.77-8.88c0.56-4.32,0.33-7.32-0.7-9.01c-1.04-1.69-2.49-2.54-4.37-2.54c-1.41,0-2.96,0.35-4.65,1.06
			c-1.69,0.7-3.41,1.6-5.14,2.68c-1.74,1.08-3.41,2.25-5,3.52c-1.6,1.27-3.01,2.46-4.23,3.59c0.56-3.85,0.66-7.11,0.28-9.79
			c-0.38-2.68-1.06-4.84-2.04-6.48c-0.99-1.64-2.23-2.82-3.73-3.52c-1.5-0.7-3.1-1.06-4.79-1.06c-1.5,0-3.01,0.24-4.51,0.7
			c-1.51,0.47-2.96,1.08-4.37,1.83c-7.04,4.04-13.41,10.05-19.09,18.03c-5.69,7.98-10.5,16.98-14.44,26.98
			c-3.22,8.16-5.78,16.71-7.72,25.66c-1.24-1.27-2.59-2.43-4.13-3.34c-1.04-0.61-2.57-0.27-3.15,0.83c-0.58,1.11-0.28,2.5,0.83,3.15
			c0.26,0.15,0.52,0.31,0.77,0.48c0.2,0.13,0.48,0.43,0.71,0.51c0.03,0.02,0.06,0.04,0.08,0.07c0.11,0.09,0.21,0.18,0.32,0.27
			c0.23,0.2,0.46,0.41,0.68,0.62c0.88,0.84,1.69,1.75,2.46,2.69c0.1,0.12,0.2,0.25,0.3,0.38c-0.03,0.15-0.06,0.3-0.09,0.46
			c-2.02,11.18-2.89,22.02-2.61,32.55c0,1.13,0.07,3,0.21,5.63c0.14,2.63,0.49,5.26,1.06,7.89c0.56,2.63,1.38,4.96,2.46,6.97
			c1.08,2.02,2.56,3.03,4.44,3.03c1.97,0,3.61-0.99,4.93-2.96c1.31-1.97,2.3-4.56,2.96-7.75c0.66-3.19,1.01-6.83,1.06-10.92
			c0.05-4.08-0.26-8.26-0.92-12.54c-0.66-4.28-1.62-8.45-2.89-12.54c-1.24-3.99-2.81-7.54-4.72-10.68
			c-0.04-0.09-0.09-0.17-0.14-0.24c1.41-7.98,3.33-15.36,5.78-22.12c1.5-4.13,3.47-8.99,5.91-14.58c2.44-5.59,5.28-10.9,8.52-15.92
			c3.24-5.02,6.83-9.28,10.78-12.75c3.94-3.47,8.22-5.21,12.82-5.21c1.13,0,2.04,0.66,2.75,1.97c0.7,1.32,1.22,2.84,1.55,4.58
			c0.33,1.74,0.51,3.48,0.56,5.21c0.04,1.74,0.02,3.03-0.07,3.87c-0.38,2.53-0.9,4.65-1.55,6.34c-0.66,1.69-1.32,3.12-1.97,4.3
			c-0.66,1.18-1.25,2.18-1.76,3.03c-0.52,0.84-0.77,1.65-0.77,2.39c-0.1,1.41,0.28,2.46,1.13,3.17c0.84,0.7,1.78,1.06,2.82,1.06
			c1.78,0,3.1-0.89,3.94-2.68c0.37-0.84,0.63-1.69,0.77-2.53c0.14-0.84,0.35-1.83,0.63-2.96c0.28-1.13,0.75-2.42,1.41-3.87
			c0.65-1.46,1.69-3.12,3.1-5c0.65-0.94,1.5-1.9,2.53-2.89c1.03-0.99,2.16-1.87,3.38-2.68c1.22-0.8,2.44-1.45,3.66-1.97
			c1.22-0.51,2.35-0.77,3.38-0.77c1.59,0,2.86,0.83,3.8,2.47c0.94,1.64,1.03,4.58,0.28,8.8c-0.19,1.22-0.19,2.56,0,4.01
			c0.19,1.46,0.63,2.82,1.34,4.09c0.7,1.27,1.64,2.32,2.82,3.17c1.17,0.84,2.65,1.27,4.44,1.27c3.01,0,6.79-1.53,11.34-4.58
			c3.2-2.14,6.04-4.82,8.72-7.58c2.07-2.13,4.35-4.29,5.91-6.89C221.1,40.75,224.06,34.23,221.04,34.92z M117.2,131.66
			c0.23,4.41,0.02,8.15-0.63,11.2c-0.66,3.05-1.83,4.58-3.52,4.58c-1.22,0-2.16-1.22-2.82-3.66c-0.66-2.44-1.06-5.63-1.2-9.58
			c-0.14-3.94-0.02-8.48,0.35-13.6c0.37-5.12,0.99-10.45,1.83-15.99c1.69,3.76,3.05,8.1,4.08,13.03
			C116.33,122.57,116.97,127.24,117.2,131.66z"/>
	</g>
</g>
<g>
	<path class="st2" d="M141.01,105c0.34-0.1,0.67-0.18,0.99-0.29c0.84-0.29,1.33,0.11,1.73,0.59c0.42,0.49-0.2,2.3-0.88,2.74
		c-0.69,0.44-2.11,0.49-2.72-0.09c-1.23-1.19-2.43-0.95-3.8-0.2c-0.58,0.32-2.66,0.04-3.04-0.39c-0.13-0.14-0.09-0.43-0.04-0.64
		c0.33-1.32,0.11-1.71-1.31-2.4c-0.79-0.38-1.56-0.79-2.28-1.26c-0.25-0.17-0.51-0.63-0.39-0.81c0.67-1.04,1.4-2.07,2.2-3.04
		c0.18-0.22,0.77-0.37,1.12-0.33c1.77,0.23,2.73,1.42,3.91,2.33c0.15,0.12,0.24,0.32,0.28,0.5c0.08,0.38-0.08,0.93,0.17,1.12
		c0.99,0.76,2.1,1.42,3.19,2.08C140.36,105.04,140.72,104.98,141.01,105z M135.28,104.97c-0.23,0.41-0.46,0.72-0.41,0.76
		c0.38,0.28,0.82,0.51,1.23,0.76c0.12-0.14,0.37-0.35,0.33-0.39C136.13,105.75,135.77,105.44,135.28,104.97z"/>
	<path class="st2" d="M121.52,61.18c0.12-1.08-0.31-2.04,0.98-2.59c0.33-0.14,0.59-0.48,0.75-0.77c0.16-0.32,0.16-0.69,0.23-1.03
		c-0.37,0.04-0.73,0.1-1.1,0.1c-0.4,0-0.82-0.03-1.21-0.12c-1.14-0.27-2.21-0.75-3.48-0.36c-0.84,0.26-0.58-0.38-0.64-0.66
		c-0.08-0.34-0.21-0.87,0.61-0.7c1.12,0.22,1.92,0.05,2.33-0.94c0.05-0.13,0.55-0.2,0.83-0.19c0.9,0.01,1.79,0.08,2.69,0.12
		c0.11,0.01,0.28-0.05,0.34-0.01c0.89,0.71,1.73,1.47,3.19,1.24c0.02,0,0.18,0.26,0.13,0.36c-0.34,0.73-0.35,1.6-1.43,2.02
		c-0.31,0.12-0.71,0.7-0.62,0.79c0.72,0.76,0.1,1.01-0.57,1.42c-0.52,0.32-0.83,0.87-1.25,1.31c-0.26,0.28-0.53,0.55-0.79,0.82
		C122.12,61.67,121.74,61.36,121.52,61.18z"/>
	<path class="st2" d="M114.61,127.27c-0.12-0.26-0.14-0.64-0.37-0.77c-1.32-0.72-1.15-1.57-0.5-2.57c0.52-0.8,0.91-1.61,0.03-2.48
		c-0.4-0.4-0.21-0.93,0.47-1.17c1.54-0.53,3.08-1.04,4.63-1.54c0.18-0.06,0.41,0,0.62,0c-0.01,0.14,0.01,0.28-0.04,0.41
		c-0.29,0.82-0.6,1.63-0.87,2.45c-0.07,0.21-0.04,0.44-0.06,0.66c0.31-0.05,0.68-0.02,0.92-0.16c1.1-0.65,2.07-0.02,3.06,0.17
		c0.22,0.04,0.42,0.54,0.4,0.82c-0.02,0.2-0.4,0.51-0.65,0.54c-0.24,0.02-0.57-0.22-0.77-0.42c-0.85-0.85-1.01-0.92-1.82-0.19
		c-0.78,0.71-1.7,1.15-2.79,1.37c-1,0.2-1.41,0.67-1.5,1.51c-0.05,0.48-0.46,0.93-0.71,1.4L114.61,127.27z"/>
	<path class="st2" d="M138.84,44.56c0.41,0.12,1.03,0.24,1.57,0.47c0.76,0.33,0.19,0.8,0.11,1.24c-0.05,0.28,0.04,0.72,0.27,0.85
		c0.25,0.14,0.78,0.07,1.1-0.06c1.05-0.4,1.46-0.97,1.01-1.66c-0.52-0.79-0.06-1.07,0.65-1.46c1.14-0.61,1.11-0.64-0.16-1.15
		c-0.18-0.07-0.3-0.22-0.45-0.34c0.23-0.11,0.51-0.35,0.68-0.3c0.87,0.22,1.73,0.48,2.55,0.81c0.19,0.08,0.26,0.48,0.24,0.72
		c-0.07,0.74-0.21,1.49-0.34,2.23c-0.04,0.23-0.03,0.51-0.18,0.68c-0.68,0.76-1.33,1.55-2.14,2.22c-1.02,0.84-2.85,0.69-3.31-0.38
		c-0.61-1.42-1.96-1.84-3.41-2.31c-0.31-0.1-0.54-0.38-0.8-0.57c0.31-0.16,0.61-0.36,0.94-0.48
		C137.64,44.89,138.14,44.77,138.84,44.56z"/>
	<path class="st2" d="M221.91,55.57c-0.23,1.37,0.76,2.27,1.55,3.23c0.19,0.23,0.44,0.44,0.6,0.69c0.12,0.19,0.13,0.42,0.19,0.63
		c-0.22-0.02-0.46-0.01-0.66-0.06c-0.33-0.08-0.63-0.28-0.96-0.31c-0.68-0.06-1.39-0.15-2.05-0.05c-1.23,0.2-1.81-0.01-1.6-0.97
		c0.19-0.9-0.18-1.26-1.07-1.64c-0.98-0.41-1.9-0.97-1.42-2.13c0.03-0.08-0.36-0.36-0.61-0.41c-0.88-0.2-1.32-1.16-0.67-1.67
		c0.19-0.15,0.93-0.14,1-0.03c0.68,1.09,1.82,0.94,3,0.85C220.52,53.62,221.73,54.52,221.91,55.57z M218.93,55.36
		c0.3,0.27,0.47,0.42,0.64,0.58c0.21-0.23,0.5-0.44,0.61-0.69c0.05-0.11-0.26-0.33-0.41-0.49
		C219.52,54.94,219.26,55.12,218.93,55.36z"/>
	<path class="st2" d="M171.56,52.21c-0.15-0.79-0.03-1.44,0.76-2.07c0.47-0.38,0.6-1.07,0.78-1.64c0.1-0.31-0.08-0.67-0.02-0.99
		c0.05-0.25,0.2-0.61,0.43-0.7c0.24-0.09,0.78,0,0.92,0.16c0.6,0.73,1.18,1.19,2.28,0.49c0.15-0.1,0.83,0.11,0.98,0.32
		c0.16,0.21,0.04,0.63-0.11,0.9c-0.1,0.18-0.47,0.25-0.7,0.4c-0.93,0.61-0.85,1.16,0.21,1.58c0.27,0.11,0.52,0.26,0.78,0.4
		c-0.34,0.14-0.68,0.39-1.02,0.39c-0.44,0.01-0.88-0.18-1.32-0.28c-1.54-0.35-2.62,0.38-2.55,1.66c0.02,0.33-0.18,0.68-0.28,1.01
		c-0.32-0.27-0.7-0.51-0.94-0.82C171.59,52.81,171.62,52.49,171.56,52.21z"/>
	<path class="st2" d="M133.65,43.92c-0.21-0.58-0.35-1.19-0.63-1.75c-0.55-1.11,0.63-2.52,2.11-2.31c1.23,0.18,2.41,0.61,3.58,1
		c0.72,0.25,0.7,0.74,0.11,1.11c-0.45,0.28-0.98,0.52-1.52,0.67c-1.01,0.28-1.78,0.69-1.97,1.62c-0.01,0.05-0.02,0.1-0.05,0.13
		c-0.39,0.37-0.78,0.73-1.18,1.09c-0.18-0.42-0.36-0.84-0.53-1.27c-0.03-0.09-0.02-0.19-0.02-0.28
		C133.58,43.94,133.62,43.93,133.65,43.92z M134.42,40.97c0.21,0.15,0.34,0.31,0.44,0.3c0.2-0.03,0.39-0.15,0.58-0.23
		c-0.12-0.11-0.24-0.32-0.37-0.32C134.89,40.7,134.7,40.85,134.42,40.97z"/>
	<path class="st2" d="M214.73,129.33c0.03-0.39,0.11-0.81-0.7-0.6c-0.22,0.06-0.48,0-0.72-0.01c0.25-0.29,0.43-0.72,0.76-0.82
		c0.38-0.12,0.98,0.19,1.34,0.05c1.68-0.66,3.2,0.22,4.81,0.21c0.76,0,1.31-0.06,1.83-0.54c0.65-0.6,1.39-1.15,2.11-1.7
		c0.52-0.4,0.95-0.21,1.28,0.2c0.36,0.45,0.04,0.74-0.46,0.86c-0.98,0.23-1.5,0.76-1.95,1.49c-0.59,0.97-1.31,1.14-2.7,0.81
		c-0.97-0.23-1.86-0.3-2.8,0.2c-0.56,0.3-1.29,0.39-1.97,0.52C214.93,130.12,214.49,129.99,214.73,129.33z"/>
	<path class="st2" d="M174.14,92.25c-0.49-0.2-0.82-0.29-1.09-0.45c-0.87-0.51-1.76-0.48-2.56,0.05c-0.82,0.54-0.46,1.19-0.05,1.79
		c0.11,0.16,0.29,0.36,0.25,0.51c-0.09,0.43-0.27,0.85-0.42,1.27c-0.37-0.17-0.8-0.3-1.1-0.53c-0.79-0.59-1.44-1.19-0.71-2.2
		c0.2-0.28-0.2-0.85-0.33-1.29c-0.11-0.35-0.33-0.71-0.3-1.05c0.02-0.21,0.38-0.46,0.66-0.57c0.13-0.05,0.43,0.2,0.65,0.33
		c0.42,0.25,0.83,0.73,1.26,0.73c0.83,0.01,0.83-0.65,0.93-1.17c0.09-0.42,0.4-0.86,0.89-0.43c0.78,0.67,1.42,1.47,2.05,2.24
		C174.38,91.63,174.2,91.93,174.14,92.25z"/>
	<path class="st2" d="M109.75,114.92c0.8-0.29,1.33-0.67,1.69-0.58c0.89,0.22,1.59-0.01,2.27-0.38c0.7-0.39,1.38-0.34,2.13-0.13
		c1.59,0.43,1.97,1.25,0.59,2.1c-0.23,0.14-0.39,0.35-0.58,0.53c-1.1,1-1.05,0.94-2.32,0.13c-0.79-0.51-1.79-0.8-2.7-1.19
		C110.61,115.29,110.38,115.19,109.75,114.92z"/>
	<path class="st2" d="M155.82,116.05c0.72-0.28,1.1-0.03,1.42,0.55c0.35,0.64,0.88,1.21,1.27,1.83c0.15,0.23,0.14,0.54,0.2,0.81
		c-0.31,0.05-0.67,0.19-0.92,0.12c-0.72-0.21-1.19,0.04-1.7,0.42c-0.95,0.72-1,0.69-1.33-0.34c-0.19-0.59-0.41-1.18-0.53-1.79
		C154.01,116.46,154.3,116.19,155.82,116.05z"/>
	<path class="st2" d="M152.58,150.28c0.1,0.44,0.31,0.9,0.28,1.35c-0.03,0.48-0.22,0.97-0.48,1.4c-0.11,0.18-0.56,0.22-0.86,0.32
		c0.03-0.22,0.08-0.43,0.08-0.65c-0.01-0.34-0.02-0.98-0.1-0.99c-1.57-0.12-0.88-0.99-0.87-1.66c0-0.73-0.14-1.44-1.13-1.72
		c-0.55-0.16-0.83-0.35-0.4-0.79c0.38-0.39,0.79-1.04,1.48-0.49C151.66,147.93,153.07,148.7,152.58,150.28z"/>
	<path class="st2" d="M99.91,48.06c0.2-0.13,0.27-0.21,0.37-0.24c0.16-0.04,0.35-0.07,0.51-0.04c3.57,0.78,6.76-0.17,9.86-1.55
		c0.72-0.32,1.86,0.27,1.83,0.93c-0.01,0.12-0.29,0.35-0.38,0.34c-2.37-0.52-4.24,0.5-6.08,1.44c-0.7,0.36-1.18,0.39-1.89,0.19
		c-1.18-0.33-2.41-0.56-3.62-0.84C100.31,48.24,100.14,48.15,99.91,48.06z"/>
	<path class="st2" d="M221.87,50.81c0.11-0.17,0.22-0.45,0.43-0.66c0.71-0.68,1-1.35,0.38-2.19c-0.14-0.19,0.1-0.56,0.17-0.85
		c0.33,0.23,0.7,0.43,0.97,0.69c0.1,0.1,0,0.36-0.04,0.55c-0.22,1.04,0.33,1.68,1.42,2.17c1.55,0.69,1.52,1.24,0,1.94
		c-0.3,0.14-0.61,0.27-0.93,0.39c-0.15,0.06-0.32,0.08-0.49,0.12c-0.01-1.05-1.42-1.18-1.88-1.92
		C221.88,51.01,221.89,50.95,221.87,50.81z"/>
	<path class="st2" d="M180.91,115.52c-0.16-0.9-0.33-1.79-0.46-2.69c-0.01-0.1,0.32-0.36,0.38-0.34c0.29,0.1,0.8,0.34,0.77,0.41
		c-0.25,0.64,0.3,0.95,0.67,1.35c1.09,1.21,1.41,1.25,2.91,0.42c0.23-0.13,0.55-0.15,0.83-0.23c-0.14,0.19-0.24,0.41-0.41,0.58
		c-0.42,0.39-0.87,0.76-1.33,1.12c-0.83,0.65-2.53,0.68-3.28,0.04c-0.19-0.16-0.27-0.4-0.4-0.6
		C180.69,115.57,180.8,115.55,180.91,115.52z"/>
	<path class="st2" d="M151.64,36.45c0.19,0.14,0.54,0.27,0.55,0.43c0.03,0.29-0.02,0.75-0.25,0.86c-0.94,0.47-1.2,0.79,0.09,1.09
		c0.09,0.02,0.13,0.35,0.09,0.52c-0.02,0.12-0.25,0.21-0.31,0.33c-0.3,0.56-0.57,1.13-0.86,1.7c-0.56-0.32-1.16-0.61-1.68-0.98
		c-0.25-0.18-0.6-0.6-0.51-0.73c0.72-1.02,1.53-2.01,2.33-2.99C151.18,36.59,151.4,36.55,151.64,36.45z"/>
	<path class="st2" d="M92.89,117.28c-0.28-0.21-0.73-0.4-0.79-0.65c-0.08-0.39,0.07-0.84,0.2-1.24c0.02-0.08,0.38-0.08,0.58-0.13
		c0.58-0.16,1.2-0.25,1.72-0.5c0.76-0.37,1.02-0.77-0.07-1.16c-0.66-0.24-0.55-1.05,0.1-1.31c0.09-0.04,0.31-0.04,0.31-0.04
		c0.23,0.91,1.46,0.77,2.04,1.31c0.43,0.41,0.2,0.64-0.24,0.91c-1.11,0.67-2.22,1.36-3.29,2.07c-0.25,0.17-0.36,0.47-0.54,0.7
		L92.89,117.28z"/>
	<path class="st2" d="M148.64,93.59c0.2,0.33,0.36,0.48,0.35,0.61c-0.07,0.79,0.29,1.2,1.29,1.35c0.68,0.1,0.55,0.51,0.07,0.8
		c-0.23,0.14-0.51,0.22-0.78,0.29c-0.8,0.22-0.91,0.52-0.5,1.16c0.52,0.79,0.31,0.95-0.82,0.84c-1.7-0.17-1.7-0.28-0.99-1.53
		c0.43-0.75,0.55-1.61,0.84-2.42C148.21,94.38,148.39,94.09,148.64,93.59z"/>
	<path class="st2" d="M206.19,133.46c-0.2-0.06-0.66-0.09-0.75-0.26c-0.1-0.18,0.07-0.55,0.27-0.72c0.4-0.33,0.86-0.66,1.37-0.85
		c1.62-0.59,3.28-1.12,4.93-1.66c0.11-0.04,0.29,0.01,0.41,0.06c0.03,0.01,0,0.18-0.05,0.26c-0.08,0.12-0.17,0.26-0.31,0.34
		c-1.47,0.82-2.94,1.64-4.43,2.43C207.25,133.25,206.77,133.3,206.19,133.46z"/>
	<path class="st2" d="M248.85,88.41c0.21,0,0.43,0.01,0.66,0.01c-0.16,0.17-0.28,0.39-0.48,0.49c-0.6,0.28-1.22,0.53-1.85,0.75
		c-0.32,0.11-0.77,0.05-1,0.21c-1.53,1.13-3.21,0.67-4.87,0.43c-0.15-0.02-0.29-0.07-0.44-0.11c0.13-0.08,0.25-0.19,0.4-0.25
		c0.92-0.41,1.83-0.82,2.77-1.19c0.17-0.06,0.59,0.05,0.69,0.18c0.53,0.68,1.12,0.42,1.8,0.16
		C247.27,88.83,248.06,88.65,248.85,88.41z"/>
	<path class="st2" d="M218.31,72.08c0.37-0.35,0.56-0.66,0.87-0.79c0.56-0.24,1.23-0.31,1.79-0.55c0.35-0.15,0.62-0.47,0.87-0.75
		c0.16-0.17,0.22-0.4,0.32-0.6c0.36,0.21,0.77,0.39,1.06,0.65c0.08,0.07-0.09,0.5-0.27,0.57c-0.74,0.3-0.99,0.67-1.11,1.4
		c-0.06,0.39-1.34,0.77-2.13,0.91C219.37,72.99,218.87,72.44,218.31,72.08z"/>
	<path class="st2" d="M259.97,129.88c-0.13-0.01-0.29-0.06-0.36-0.01c-1.51,0.95-1.73-0.32-2.31-0.91
		c-0.14-0.14-0.18-0.55-0.07-0.62c0.24-0.14,0.6-0.18,0.91-0.17c0.2,0,0.41,0.16,0.6,0.25c0.52,0.24,0.89,0.29,0.81-0.38
		c-0.03-0.22,0.02-0.46,0.08-0.69c0.04-0.13,0.19-0.23,0.28-0.35c0.1,0.12,0.2,0.24,0.3,0.37c0.21,0.27,0.39,0.56,0.63,0.82
		c0.33,0.35,1,0.54,0.66,1.15C261.19,129.93,260.64,130.05,259.97,129.88z"/>
	<path class="st2" d="M252.03,117.54c0.32,0.08,0.58,0.14,0.83,0.2c-0.13,0.19-0.2,0.43-0.39,0.57c-0.75,0.59-1.45,1.26-2.32,1.69
		c-0.58,0.29-1.43,0.29-2.14,0.28c-0.64-0.01-0.71-0.39-0.34-0.79c0.1-0.11,0.21-0.24,0.36-0.3
		C249.36,118.63,250.7,118.08,252.03,117.54z"/>
	<path class="st2" d="M105.74,82.04c0.02-0.09,0.05-0.26,0.07-0.26c1.17,0.03,1.54-1.2,2.45-1.2c0.73,0,1.5,0.56,2.15,0.98
		c0.18,0.11-0.03,0.62-0.06,0.94c-0.27-0.05-0.61-0.05-0.81-0.18c-0.33-0.21-0.57-0.5-0.85-0.76c-0.44,0.36-0.93,0.69-1.31,1.09
		c-0.15,0.16-0.05,0.46-0.12,0.69c-0.05,0.16-0.22,0.3-0.33,0.45c-0.18-0.1-0.45-0.16-0.53-0.3
		C106.13,83.02,105.95,82.53,105.74,82.04z"/>
	<path class="st2" d="M184.46,133.76c0.3-0.14,0.63-0.39,0.78-0.34c1.55,0.58,3.08,1.22,4.06,2.42c0.14,0.18,0.1,0.67-0.05,0.75
		c-0.29,0.15-0.74,0.17-1.1,0.12c-0.24-0.04-0.45-0.27-0.63-0.44c-0.7-0.66-1.22-1.46-2.36-1.74
		C184.9,134.46,184.76,134.1,184.46,133.76z"/>
	<path class="st2" d="M130.04,89.2c1.11-0.12,2.25,0.6,2.2,1.33c-0.02,0.25-0.52,0.71-0.77,0.7c-0.9-0.03-1.81-0.19-2.69-0.38
		c-0.28-0.06-0.64-0.34-0.66-0.55c-0.02-0.2,0.29-0.51,0.54-0.63C129.16,89.44,129.72,89.31,130.04,89.2z"/>
	<path class="st2" d="M150.73,98.67c0.01-0.09-0.01-0.24,0.04-0.26c0.83-0.37,1.63-0.85,2.52-1.04c0.64-0.14,1.54,0.79,1.52,1.45
		c0,0.14-0.38,0.28-0.58,0.42c-0.57-0.57-1.06-0.17-1.64,0.04C151.9,99.52,150.84,99.13,150.73,98.67z"/>
	<path class="st2" d="M182.79,154.58c0.23-0.4,0.28-0.67,0.48-0.82c0.87-0.68,1.78-1.34,2.69-1.99c0.1-0.07,0.31-0.04,0.47-0.05
		c0.01,0.13,0.08,0.3,0.01,0.39c-0.63,0.79-1.26,1.55-1.17,2.57c0.01,0.12-0.81,0.43-1.23,0.42
		C183.61,155.09,183.21,154.77,182.79,154.58z"/>
	<path class="st2" d="M239.03,62.05c0.39,0.02,0.57,0,0.73,0.04c0.25,0.07,0.49,0.17,0.73,0.26c-0.12,0.15-0.25,0.29-0.37,0.44
		c-0.25,0.31-0.56,0.6-0.73,0.93c-0.36,0.71-1.4,1.46-2.23,1.47c-0.12,0-0.37-0.25-0.34-0.31c0.43-0.83,0.85-1.66,1.38-2.44
		C238.35,62.21,238.85,62.13,239.03,62.05z"/>
	<path class="st2" d="M310.77,77.44c-0.78-0.4-1.46-0.61-1.87-1.02c-0.21-0.21-0.06-0.8,0.14-1.13c0.27-0.45,0.72-0.85,1.15-1.23
		c0.57-0.51,1.05-0.15,1.45,0.18c0.55,0.46,0.05,0.59-0.4,0.76c-0.89,0.34-0.52,0.9-0.37,1.45
		C310.94,76.72,310.82,77.03,310.77,77.44z"/>
	<path class="st2" d="M256.01,123.99c0.47-0.4,0.68-0.72,1.01-0.84c0.68-0.25,1.42-0.41,2.15-0.58c1-0.23,2-0.45,3.01-0.66
		c0.15-0.03,0.31,0,0.47,0c-0.07,0.12-0.1,0.3-0.21,0.35c-0.9,0.43-1.78,0.91-2.72,1.25c-0.84,0.3-1.76,0.48-2.65,0.66
		C256.81,124.22,256.52,124.09,256.01,123.99z"/>
	<path class="st2" d="M311.25,72.41c-0.19-0.15-0.77-0.37-0.86-0.7c-0.22-0.79,0.43-1.79,1.04-1.88c0.78-0.11,1.45,0.33,1.54,1
		C313.06,71.61,312.47,72.28,311.25,72.41z"/>
	<path class="st2" d="M137.38,87.69c0.63-0.07,1.25-0.17,1.88-0.19c0.64-0.03,1.16,0.18,1.15,0.78c-0.02,0.6-0.62,0.59-1.14,0.6
		c-0.28,0-0.62,0.03-0.84-0.08c-1-0.49-2.03-0.55-3.13-0.23c-0.16,0.05-0.4-0.09-0.6-0.14c0.16-0.16,0.28-0.43,0.47-0.47
		c0.72-0.15,1.46-0.24,2.2-0.34C137.37,87.64,137.37,87.66,137.38,87.69z"/>
	<path class="st2" d="M234.34,111.46c-0.01-0.09-0.07-0.2-0.03-0.28c0.13-0.32,0.29-0.63,0.44-0.95c0.2,0.25,0.54,0.49,0.57,0.75
		c0.09,0.76,0.48,1.2,1.42,1.38c0.69,0.14,0.68,0.46,0.06,0.74c-0.51,0.23-1.02,0.47-1.57,0.62c-0.36,0.1-0.78,0.07-1.17,0.1
		c0.16-0.24,0.43-0.47,0.45-0.72c0.05-0.55-0.03-1.1-0.06-1.65C234.42,111.46,234.38,111.46,234.34,111.46z"/>
	<path class="st2" d="M210.8,149.79c-0.24-0.25-0.8-0.57-0.92-0.98c-0.19-0.61,1.06-1.9,1.66-1.77c0.35,0.07,0.73,0.54,0.79,0.87
		C212.48,148.77,211.79,149.71,210.8,149.79z"/>
	<path class="st2" d="M268.12,82.87c-0.2,0.29-0.51,0.56-0.58,0.87c-0.06,0.28,0.15,0.59,0.25,0.89c0.3-0.08,0.61-0.16,0.9-0.25
		c0.3-0.1,0.65-0.37,0.86-0.3c0.53,0.16,1,0.45,1.46,0.72c0.03,0.02-0.18,0.48-0.33,0.51c-1.26,0.24-2.54,0.3-3.67-0.32
		c-0.76-0.42-0.81-1.05-0.14-1.56c0.33-0.25,0.79-0.38,1.2-0.57L268.12,82.87z"/>
	<path class="st2" d="M233.98,123.91c0.5-0.03,0.99-0.06,1.49-0.08c-0.01,0.12,0.04,0.33-0.03,0.36c-0.61,0.25-1.22,0.5-1.86,0.69
		c-0.15,0.04-0.41-0.14-0.6-0.24c-0.29-0.16-0.55-0.34-0.83-0.51c-1.58-0.98-1.59-0.98-0.62-2.27c0.16-0.22,0.45-0.37,0.68-0.56
		c0.02,0.25,0.12,0.51,0.04,0.73c-0.3,0.73-0.12,1.32,0.63,1.75c0.3,0.17,0.7,0.22,1.06,0.33
		C233.95,124.05,233.96,123.98,233.98,123.91z"/>
	<path class="st2" d="M157.45,105.1c-0.17-0.09-0.51-0.24-0.77-0.45c-0.28-0.22-0.46-0.54-0.75-0.75c-0.3-0.22-1.02-0.22-0.54-0.77
		c0.42-0.48,1.01-0.7,1.64-0.33c0.51,0.3,0.97,0.67,1.35,1.07C158.89,104.41,158.52,105.01,157.45,105.1z"/>
	<path class="st2" d="M151.51,104.16c-0.1,0.5-0.16,1.01-0.3,1.51c-0.04,0.14-0.31,0.23-0.47,0.35c-0.11-0.15-0.29-0.29-0.33-0.45
		c-0.1-0.37-0.13-0.75-0.2-1.12c-0.13-0.71-0.43-1.2-1.48-0.76c-0.22,0.09-0.53,0.06-0.79,0.09c0.2-0.18,0.39-0.37,0.6-0.55
		c0.08-0.07,0.2-0.1,0.3-0.15C150.64,102.28,151.09,102.47,151.51,104.16z"/>
	<path class="st2" d="M218.94,67.67c0.63-0.1,1.18,0.32,1.01,0.84c-0.08,0.25-0.32,0.51-0.56,0.69c-0.53,0.41-0.95,1.06-1.86,0.83
		c-0.18-0.05-0.37-0.35-0.37-0.54C217.15,68.92,218.32,67.77,218.94,67.67z"/>
	<path class="st2" d="M298.46,81.58c0.47-0.19,0.87-0.73,1.5-0.25c0.59,0.45,0.36,0.93,0.06,1.41c-0.16,0.25-0.28,0.53-0.5,0.74
		c-0.51,0.5-1.77,0.64-2.17,0.23c-0.61-0.62-0.02-1.02,0.52-1.41c0.43,0.26,0.92,0.7,1.34,0.06
		C299.57,81.81,298.94,81.7,298.46,81.58z"/>
	<path class="st2" d="M206.24,41.01c0.46,0.21,0.67,0.28,0.84,0.38c0.36,0.22,0.68,0.5,1.07,0.69c0.68,0.34,0.73,0.59,0.03,1.03
		c-0.46,0.29-0.7,0.8-1.08,1.19c-0.16,0.16-0.41,0.27-0.61,0.4c-0.14-0.23-0.34-0.44-0.39-0.68c-0.03-0.16,0.11-0.37,0.24-0.52
		c0.46-0.52,0.62-0.98-0.02-1.5C206.14,41.86,206.26,41.48,206.24,41.01z"/>
	<path class="st2" d="M237.8,117.04c0.27,0.06,0.53,0.11,0.78,0.17c-0.11,0.16-0.21,0.33-0.34,0.48c-0.34,0.36-0.56,0.85-1.35,0.63
		c-1.13-0.31-1.9,0.06-2.35,0.96c-0.07,0.15-0.31,0.24-0.47,0.35c-0.08-0.2-0.31-0.48-0.22-0.59c0.38-0.46,0.76-1,1.32-1.26
		C235.96,117.42,236.9,117.28,237.8,117.04z"/>
	<path class="st2" d="M143.59,137.76c0.42-0.23,0.95-0.54,1.5-0.8c0.02-0.01,0.45,0.35,0.4,0.48c-0.29,0.8-0.22,1.56,0.12,2.33
		c0.06,0.14-0.21,0.37-0.33,0.56c-0.16-0.12-0.38-0.21-0.46-0.35C144.42,139.32,144.07,138.64,143.59,137.76z"/>
	<path class="st2" d="M138.23,111.07c-0.89,0.04-1.76-0.99-1.39-1.46c0.31-0.41,0.9-0.69,1.39-1c0.09-0.06,0.45,0.02,0.46,0.06
		c0.07,0.43,0.19,0.87,0.1,1.29C138.69,110.38,138.39,110.76,138.23,111.07z"/>
	<path class="st2" d="M108.64,120.74c-0.14-0.83,0.69-1.75,1.45-1.72c0.39,0.02,0.92,0.32,1.08,0.61c0.22,0.4-0.89,1.39-1.61,1.44
		C109.21,121.08,108.85,120.82,108.64,120.74z"/>
	<path class="st2" d="M114.35,80.6c-0.23,0.02-0.47,0.09-0.69,0.06c-0.38-0.04-1.04-0.12-1.05-0.23c-0.04-0.34,0.07-0.76,0.32-1.03
		c0.17-0.18,0.67-0.2,1.02-0.21c0.21-0.01,0.43,0.12,0.63,0.21c0.5,0.22,1,0.44,1.5,0.67c-0.56,0.21-1.11,0.43-1.67,0.64
		C114.4,80.68,114.38,80.64,114.35,80.6z"/>
	<path class="st2" d="M125.68,63.32c-0.07-0.78,0.73-1.9,1.25-1.81c0.43,0.08,0.97,0.35,1.15,0.66c0.25,0.43-1.09,1.53-1.78,1.49
		C126.05,63.64,125.82,63.4,125.68,63.32z"/>
	<path class="st2" d="M109.91,49.89c0.1,0.22,0.19,0.44,0.3,0.65c0.12,0.24,0.25,0.47,0.38,0.7c-0.27-0.04-0.54-0.12-0.81-0.11
		c-0.5,0.02-0.99,0.09-1.48,0.15c-0.38,0.05-0.77,0.17-1.13,0.14c-0.22-0.02-0.53-0.25-0.58-0.43c-0.03-0.13,0.25-0.42,0.46-0.48
		c0.93-0.25,1.88-0.45,2.82-0.67L109.91,49.89z"/>
	<path class="st2" d="M235.98,106.09c-0.07-0.56-0.28-1.14-0.16-1.67c0.07-0.32,0.62-0.71,1.03-0.79c0.31-0.06,0.94,0.24,1.06,0.5
		c0.12,0.25-0.15,0.71-0.42,0.96c-0.41,0.39-0.97,0.68-1.46,1.01L235.98,106.09z"/>
	<path class="st2" d="M113.33,71.58c-0.12-0.14-0.47-0.37-0.47-0.6c-0.04-0.99,0.58-2.03,1.05-1.89c0.4,0.12,0.83,0.5,0.93,0.84
		C115.03,70.56,114.17,71.56,113.33,71.58z"/>
	<path class="st2" d="M108.17,70.69c0.61-0.06,0.84-0.12,1.06-0.11c0.27,0.01,0.53,0.08,0.79,0.12c-0.2,0.2-0.35,0.45-0.6,0.58
		c-0.47,0.25-0.99,0.44-1.5,0.64c-0.3,0.12-0.71,0.34-0.89,0.26c-0.31-0.14-0.64-0.49-0.63-0.74c0.01-0.2,0.48-0.46,0.81-0.58
		C107.63,70.73,108.1,70.71,108.17,70.69z"/>
	<path class="st2" d="M139.8,89.97c1.4-0.13,2.05,0.43,1.89,1.19c-0.01,0.04-0.01,0.13-0.01,0.13c-0.73,0.01-1.46,0.07-2.18,0
		c-0.32-0.03-0.58-0.34-0.87-0.53C139.12,90.43,139.61,90.1,139.8,89.97z"/>
	<path class="st2" d="M212.69,131.81c0.76,0.14,1.34,0.25,1.92,0.36c-0.52,0.18-1.05,0.34-1.55,0.56c-0.65,0.28-1.26,0.61-1.92,0.88
		c-0.2,0.08-0.49,0.01-0.74,0.01c0.04-0.17,0.01-0.42,0.13-0.51C211.24,132.65,211.98,132.23,212.69,131.81z"/>
	<path class="st2" d="M181.74,138.82c0.92-0.06,1.63-0.08,1.44,0.82c-0.02,0.09-0.02,0.19,0.01,0.28c0.11,0.33,0.25,0.65,0.37,0.98
		c-0.41-0.17-0.84-0.33-1.23-0.53c-0.29-0.15-0.57-0.33-0.79-0.54c-0.23-0.22-0.4-0.5-0.59-0.75
		C181.26,138.98,181.57,138.87,181.74,138.82z"/>
	<path class="st2" d="M227.07,46.21c0.54,0.1,1.19,0.12,1.73,0.34c0.31,0.12,0.43,0.54,0.64,0.83c-0.36,0.07-0.75,0.25-1.08,0.19
		c-0.55-0.09-1.08-0.3-1.59-0.51c-0.27-0.11-0.48-0.3-0.72-0.46C226.36,46.5,226.66,46.38,227.07,46.21z"/>
	<path class="st2" d="M181.97,109.93c0.14-0.1,0.28-0.25,0.47-0.33c0.69-0.29,1.66-0.26,1.81-1.15c0.01-0.05,0.41-0.14,0.56-0.09
		c0.18,0.07,0.41,0.3,0.38,0.41c-0.16,0.55-0.4,1.08-0.63,1.62c-0.03,0.08-0.17,0.19-0.23,0.18c-0.75-0.13-1.5-0.29-2.25-0.44
		C182.04,110.12,182.03,110.05,181.97,109.93z"/>
	<path class="st2" d="M119.12,100.42c-0.34-0.12-0.56-0.14-0.61-0.23c-0.06-0.1-0.04-0.32,0.05-0.38c0.85-0.55,1.72-1.08,2.6-1.59
		c0.09-0.05,0.42,0.02,0.44,0.07c0.04,0.17,0.07,0.43-0.04,0.51C120.75,99.37,119.9,99.91,119.12,100.42z"/>
	<path class="st2" d="M162.25,121.43c0.39-0.04,0.79-0.13,1.17-0.1c0.16,0.01,0.42,0.22,0.44,0.36c0.09,0.59,0.13,1.18,0.13,1.78
		c0,0.19-0.14,0.46-0.32,0.56c-0.21,0.11-0.54,0.06-0.81,0.08c-0.01-0.21-0.08-0.43-0.01-0.63c0.41-1.19,0.42-1.19-1.13-1.34
		c-0.14-0.01-0.36-0.09-0.38-0.16c-0.03-0.12,0.04-0.31,0.15-0.38c0.21-0.13,0.48-0.2,0.73-0.3
		C162.22,121.34,162.24,121.38,162.25,121.43z"/>
	<path class="st2" d="M213.18,118.65c0.07,0.48,0.14,0.63,0.1,0.75c-0.13,0.34-0.24,0.72-0.51,0.98c-0.11,0.1-0.84,0-0.88-0.1
		c-0.1-0.33-0.03-0.7,0.01-1.06c0.02-0.14,0.11-0.27,0.19-0.4c0.2-0.32,0.41-0.63,0.61-0.95
		C212.92,118.23,213.14,118.58,213.18,118.65z"/>
	<path class="st2" d="M97.32,126.54c-0.43-0.35-1.26-0.74-1.2-1.03c0.15-0.73,1.04-0.24,1.6-0.36c0.66-0.14,1.3-0.35,1.97-0.48
		c0.15-0.03,0.36,0.15,0.55,0.23c-0.12,0.08-0.23,0.24-0.35,0.24c-1.19,0.06-1.69,0.93-2.51,1.43L97.32,126.54z"/>
	<path class="st2" d="M242.63,85.19c-0.11-0.04,0.05-0.01,0.15,0.07c0.04,0.04,0,0.18-0.06,0.25c-0.76,0.91-2.51,1.06-3.21,0.26
		c-0.16-0.19-0.11-0.51-0.16-0.76c0.3-0.01,0.63-0.09,0.89-0.02c0.37,0.1,0.68,0.39,1.05,0.44
		C241.64,85.48,242.02,85.32,242.63,85.19z"/>
	<path class="st2" d="M178.48,134.62c0.55,0.56,0.95,0.89,1.22,1.29c0.06,0.09-0.29,0.41-0.51,0.58c-0.65,0.52-1.32,1.03-2.01,1.53
		c-0.16,0.11-0.39,0.16-0.59,0.24c0.03-0.2-0.03-0.46,0.1-0.6c0.33-0.38,0.7-0.77,1.13-1.07c0.53-0.37,0.95-0.7,0.53-1.3
		C178.29,135.19,178.4,135.01,178.48,134.62z"/>
	<path class="st2" d="M181.71,106.34c0.11,0.21,0.43,0.6,0.33,0.69c-0.52,0.51-1.14,0.95-1.75,1.39c-0.01,0.01-0.51-0.37-0.48-0.4
		c0.48-0.55,1-1.08,1.52-1.62C181.36,106.38,181.44,106.39,181.71,106.34z"/>
	<path class="st2" d="M141.25,85.27c0.48-0.22,0.91-0.52,1.39-0.6c0.44-0.07,1.01,0,1.39,0.18c0.28,0.14,0.4,0.55,0.48,0.87
		c0.03,0.1-0.31,0.41-0.4,0.39c-0.88-0.19-1.75-0.42-2.62-0.66C141.41,85.43,141.35,85.35,141.25,85.27z"/>
	<path class="st2" d="M121.04,130.68c-0.58-0.17-1.06-0.28-1.49-0.46c-0.06-0.03,0.02-0.52,0.17-0.59c0.42-0.19,0.93-0.39,1.37-0.35
		c0.38,0.03,0.72,0.38,1.07,0.58C121.8,130.12,121.45,130.39,121.04,130.68z"/>
	<path class="st2" d="M251.97,125.87c-0.93,0.01-1.66,0.03-1.71-0.67c-0.01-0.19,0.67-0.61,0.94-0.57c0.54,0.09,1.03,0.42,1.53,0.65
		C252.43,125.51,252.13,125.75,251.97,125.87z"/>
	<path class="st2" d="M188.24,127.88c-0.2-0.16-0.31-0.29-0.45-0.35c-0.61-0.23-1.23-0.44-1.84-0.67c-0.24-0.09-0.46-0.21-0.69-0.31
		c0.23-0.12,0.45-0.26,0.7-0.36c1.25-0.51,2.52,0.14,2.5,1.28C188.44,127.58,188.34,127.69,188.24,127.88z"/>
	<path class="st2" d="M197.2,42.08c-0.23,0.11-0.63,0.43-0.81,0.36c-0.7-0.27-1.34-0.66-1.98-1.03c-0.05-0.03-0.01-0.29,0.08-0.35
		C195.02,40.73,197.05,41.38,197.2,42.08z"/>
	<path class="st2" d="M127.44,143.47c0.17-0.42,0.33-0.83,0.49-1.23c0.25,0.37,0.66,0.72,0.71,1.11c0.07,0.51-0.15,1.05-0.24,1.58
		C128.09,144.47,127.8,144.02,127.44,143.47z"/>
	<path class="st2" d="M92.91,117.25c0.93-0.23,1.86-0.5,2.8-0.67c0.39-0.07,0.85,0.03,1.24,0.12c0.07,0.02,0.1,0.54-0.05,0.63
		c-0.32,0.2-0.78,0.41-1.15,0.38c-0.97-0.08-1.92-0.28-2.87-0.43L92.91,117.25z"/>
	<path class="st2" d="M190.87,95.8c-0.6-0.11-1.09-0.18-1.56-0.3c-0.07-0.02-0.08-0.45-0.01-0.47c0.46-0.15,0.95-0.35,1.42-0.33
		c0.39,0.02,0.75,0.31,1.12,0.48C191.52,95.38,191.19,95.59,190.87,95.8z"/>
	<path class="st2" d="M245.32,141.52c0.34,0.35,0.69,0.56,0.74,0.81c0.13,0.64-0.48,0.82-1.08,0.8c-0.4-0.01-0.79-0.22-1.19-0.34
		C244.26,142.41,244.72,142.03,245.32,141.52z"/>
	<path class="st2" d="M286.25,106.82c0.11,0.02,0.21,0.04,0.32,0.06c-0.07,0.12-0.1,0.27-0.21,0.35c-0.93,0.7-1.88,1.38-2.83,2.06
		c-0.07,0.05-0.24,0.07-0.3,0.03c-0.07-0.04-0.1-0.16-0.09-0.24C283.22,108.32,285.22,106.87,286.25,106.82z"/>
	<path class="st2" d="M262.73,125.75c0.07-0.09,0.11-0.25,0.23-0.3c0.61-0.25,1.23-0.48,1.87-0.67c0.12-0.04,0.34,0.14,0.51,0.21
		c-0.39,0.39-0.7,0.86-1.19,1.13c-0.27,0.15-0.82-0.04-1.24-0.1C262.85,126.01,262.81,125.87,262.73,125.75z"/>
	<path class="st2" d="M231.09,145.88c-0.32,0.55-0.62,1.06-0.92,1.57c-0.28-0.4-0.79-0.81-0.76-1.19c0.03-0.34,0.66-0.66,1.02-0.99
		C230.61,145.43,230.79,145.6,231.09,145.88z"/>
	<path class="st2" d="M109.77,94.63c0.27-0.49,0.44-0.81,0.62-1.13c0.43,0.39,0.87,0.77,1.24,1.19c0.03,0.03-0.44,0.51-0.58,0.48
		C110.63,95.09,110.26,94.86,109.77,94.63z"/>
	<path class="st2" d="M103.72,46.92c-0.78-0.46-1.41-0.81-1.98-1.22c-0.04-0.03,0.37-0.48,0.57-0.73c0.54,0.43,1.1,0.85,1.61,1.3
		C104,46.34,103.84,46.57,103.72,46.92z"/>
	<path class="st2" d="M114.49,59.28c0.43-0.36,0.73-0.75,1.15-0.9c0.35-0.12,0.86,0.04,1.28,0.1c0.05,0.01,0.11,0.3,0.07,0.33
		c-0.62,0.31-1.24,0.61-1.9,0.87C115.02,59.71,114.79,59.48,114.49,59.28z"/>
	<path class="st2" d="M98.52,113.05c-0.3-0.09-0.5-0.1-0.59-0.19c-0.52-0.48-1.03-0.97-1.5-1.49c-0.1-0.11-0.02-0.34-0.02-0.51
		c0.2,0.02,0.49-0.01,0.6,0.08c0.54,0.46,1.07,0.94,1.54,1.46C98.65,112.52,98.54,112.78,98.52,113.05z"/>
	<path class="st2" d="M279.75,98.29c-1.12,0.37-2.24,0.74-3.36,1.09c-0.19,0.06-0.43,0-0.65-0.01c0.12-0.15,0.22-0.33,0.38-0.44
		c0.63-0.41,1.27-0.8,1.92-1.18c0.85-0.49,1.17,0.31,1.75,0.49L279.75,98.29z"/>
	<path class="st2" d="M287.26,96.05c0.28-0.21,0.4-0.37,0.51-0.37c0.28,0,0.62,0.01,0.82,0.14c0.42,0.28,0.76,0.64,1.14,0.97
		c-0.22,0.12-0.55,0.37-0.64,0.33C288.47,96.81,287.91,96.44,287.26,96.05z"/>
	<path class="st2" d="M181.66,39.07c-0.41-0.22-0.75-0.4-1.08-0.58c0.35-0.27,0.67-0.73,1.04-0.76c0.39-0.04,0.84,0.32,1.27,0.51
		C182.52,38.48,182.16,38.73,181.66,39.07z"/>
	<path class="st2" d="M264.43,26.43c-0.55-0.54-0.96-0.81-1.12-1.15c-0.08-0.19,0.28-0.51,0.44-0.78c0.4,0.21,0.94,0.36,1.14,0.67
		C265.03,25.38,264.68,25.8,264.43,26.43z"/>
	<path class="st2" d="M108.54,113.29c-0.11,0.01-0.23,0.05-0.34,0.03c-0.48-0.08-0.96-0.17-1.43-0.28
		c-0.03-0.01-0.02-0.25-0.01-0.25c0.47-0.04,1-0.19,1.42-0.07c0.81,0.22,1.29-0.18,1.86-0.47c0.11-0.06,0.3-0.01,0.45-0.01
		c-0.04,0.13-0.04,0.32-0.14,0.37c-0.56,0.29-1.15,0.55-1.72,0.82C108.6,113.38,108.57,113.33,108.54,113.29z"/>
	<path class="st2" d="M97.9,119.57c0.37-0.17,0.73-0.37,1.13-0.49c0.34-0.11,0.73-0.15,1.1-0.16c0.06,0,0.24,0.4,0.18,0.45
		c-0.3,0.24-0.65,0.53-1.03,0.6c-0.42,0.08-0.89-0.05-1.34-0.1C97.92,119.77,97.91,119.67,97.9,119.57z"/>
	<path class="st2" d="M184.45,139.43c0.7-0.51,1.05-0.84,1.48-1.03c0.17-0.08,0.54,0.15,0.83,0.24c-0.29,0.35-0.51,0.76-0.89,1.03
		C185.71,139.78,185.23,139.57,184.45,139.43z"/>
	<path class="st2" d="M136.24,59.01c0.07,0.01,0.25,0.02,0.26,0.05c0.01,0.13,0.04,0.33-0.05,0.39c-0.57,0.39-1.14,0.76-1.76,1.09
		c-0.15,0.08-0.47-0.06-0.71-0.09c0.08-0.21,0.08-0.53,0.25-0.61C134.86,59.52,135.55,59.29,136.24,59.01z"/>
	<path class="st2" d="M221.07,142.51c0.79-0.41,1.29-0.78,1.86-0.9c0.24-0.05,0.64,0.4,0.96,0.63c-0.29,0.09-0.58,0.19-0.86,0.28
		c-0.37,0.12-0.73,0.27-1.11,0.34C221.77,142.89,221.58,142.74,221.07,142.51z"/>
	<path class="st2" d="M290.66,63.6c0.27,0.1,0.49,0.12,0.55,0.21c0.06,0.1,0.03,0.3-0.05,0.39c-0.32,0.33-0.63,0.7-1.05,0.92
		c-0.35,0.18-0.85,0.16-1.28,0.22c0.21-0.26,0.38-0.55,0.63-0.78C289.82,64.21,290.26,63.91,290.66,63.6z"/>
	<path class="st2" d="M231.1,96.71c-0.52-0.35-0.94-0.6-1.28-0.92c-0.04-0.04,0.55-0.63,0.6-0.61c0.47,0.21,0.9,0.49,1.3,0.79
		C231.76,95.99,231.41,96.34,231.1,96.71z"/>
	<path class="st2" d="M130.91,62.72c0.14,0.15,0.33,0.27,0.31,0.37c-0.08,0.41-0.1,0.88-0.37,1.21c-0.24,0.31-0.76,0.47-1.16,0.7
		c0.09-0.36,0.14-0.73,0.29-1.08c0.14-0.31,0.38-0.59,0.59-0.87C130.66,62.94,130.78,62.85,130.91,62.72z"/>
	<path class="st2" d="M105.5,57.15c-0.04-0.76,0.82-1.62,1.56-1.63c0.15,0,0.44,0.36,0.42,0.38c-0.49,0.46-1,0.9-1.55,1.32
		C105.87,57.28,105.62,57.18,105.5,57.15z"/>
	<path class="st2" d="M164.35,154.88c0.15,0,0.26,0,0.37-0.01c-0.06,0.12-0.08,0.27-0.19,0.36c-0.55,0.42-1.1,0.83-1.69,1.21
		c-0.18,0.11-0.49,0.08-0.74,0.11c0.06-0.25,0.01-0.64,0.19-0.74C162.95,155.44,163.68,155.17,164.35,154.88z"/>
	<path class="st2" d="M279.78,98.25c0.51,0.02,1.04-0.03,1.51,0.08c0.22,0.05,0.43,0.41,0.46,0.64c0.02,0.16-0.25,0.44-0.46,0.51
		c-0.21,0.06-0.62,0-0.76-0.14c-0.32-0.31-0.54-0.7-0.79-1.06L279.78,98.25z"/>
	<path class="st2" d="M110.5,54.01c0.53-0.23,0.73-0.38,0.93-0.38c0.21-0.01,0.42,0.13,0.63,0.18c0.38,0.11,0.77,0.2,1.16,0.3
		c-0.43,0.2-0.86,0.54-1.3,0.56C111.55,54.68,111.15,54.33,110.5,54.01z"/>
	<path class="st2" d="M138.54,55.93c-0.27-0.33-0.64-0.63-0.75-0.99c-0.06-0.2,0.33-0.5,0.51-0.75c0.26,0.17,0.7,0.32,0.74,0.53
		c0.08,0.37-0.09,0.77-0.15,1.15C138.77,55.89,138.65,55.91,138.54,55.93z"/>
	<path class="st2" d="M228.46,52.33c-0.41-0.36-0.76-0.59-0.98-0.89c-0.05-0.07,0.51-0.56,0.58-0.53c0.48,0.2,0.91,0.49,1.35,0.75
		C229.16,51.84,228.9,52.03,228.46,52.33z"/>
	<path class="st2" d="M134.8,77.57c0.9-0.37,1.78-0.79,2.72-1.08c0.31-0.1,0.77,0.13,1.16,0.21c-0.33,0.15-0.65,0.37-1,0.44
		c-0.94,0.19-1.9,0.31-2.85,0.46L134.8,77.57z"/>
	<path class="st2" d="M226.57,113.81c0.66-0.37,1.1-0.63,1.56-0.85c0.05-0.02,0.38,0.18,0.38,0.28c0.02,0.45,0.13,1.02-0.67,1.07
		C227.53,114.34,227.19,114.07,226.57,113.81z"/>
	<path class="st2" d="M161.64,105.22c0.05-0.46,0.01-0.95,0.18-1.38c0.12-0.3,0.54-0.52,0.87-0.75c0.07-0.05,0.36,0.03,0.44,0.11
		c0.06,0.07-0.01,0.26-0.07,0.37c-0.35,0.57-0.71,1.14-1.08,1.7c-0.06,0.09-0.25,0.13-0.38,0.2c-0.01-0.09-0.01-0.17-0.02-0.26
		C161.6,105.22,161.62,105.22,161.64,105.22z"/>
	<path class="st2" d="M179.82,143c0.1-0.31,0.11-0.69,0.34-0.91c0.19-0.19,0.67-0.29,0.97-0.25c0.24,0.04,0.59,0.37,0.57,0.55
		c-0.02,0.19-0.38,0.44-0.66,0.52c-0.36,0.11-0.78,0.09-1.17,0.13L179.82,143z"/>
	<path class="st2" d="M120.67,67.63c0.25,0.01,0.59,0.01,0.93,0.03c0.1,0.01,0.18,0.09,0.27,0.14c-0.07,0.05-0.13,0.13-0.22,0.15
		c-0.52,0.17-1.04,0.39-1.59,0.49c-0.26,0.05-0.58-0.13-0.87-0.21c0.24-0.16,0.45-0.36,0.72-0.48
		C120.1,67.67,120.36,67.68,120.67,67.63z"/>
	<path class="st2" d="M197.16,140.89c-0.18-0.21-0.34-0.31-0.34-0.41c0-0.23-0.01-0.51,0.15-0.67c0.29-0.3,0.69-0.54,1.04-0.8
		c-0.07,0.33-0.1,0.68-0.24,0.99C197.65,140.28,197.41,140.54,197.16,140.89z"/>
	<path class="st2" d="M180.29,79.36c-0.67,0.06-1.34,0.15-2.01,0.16c-0.14,0-0.4-0.24-0.4-0.36c0-0.12,0.32-0.37,0.42-0.34
		c0.68,0.14,1.35,0.33,2.02,0.51L180.29,79.36z"/>
	<path class="st2" d="M144.58,150.33c-0.31,0-0.43,0.01-0.54-0.01c-0.42-0.08-0.83-0.18-1.25-0.27c0.14-0.13,0.28-0.38,0.41-0.37
		c0.6,0.03,1.19,0.12,1.78,0.19C144.83,150.05,144.67,150.23,144.58,150.33z"/>
	<path class="st2" d="M136.56,151.07c0.43,0.24,0.68,0.38,0.93,0.52c-0.31,0.29-0.58,0.63-0.95,0.85c-0.11,0.06-0.52-0.23-0.79-0.35
		C136,151.78,136.25,151.46,136.56,151.07z"/>
	<path class="st2" d="M237.24,32.99c-0.26-0.01-0.33,0-0.38-0.01c-0.47-0.11-0.93-0.23-1.4-0.34c0.09-0.11,0.2-0.32,0.27-0.31
		c0.65,0.07,1.29,0.17,1.93,0.26C237.49,32.75,237.32,32.91,237.24,32.99z"/>
	<path class="st2" d="M132.5,94.4c0.48-0.38,0.83-0.65,1.18-0.93c0.17,0.15,0.52,0.38,0.48,0.43c-0.23,0.31-0.52,0.6-0.85,0.84
		C133.25,94.79,132.9,94.57,132.5,94.4z"/>
	<path class="st2" d="M97.05,121.39c0.4,0.06,0.86,0.07,1.25,0.2c0.17,0.06,0.22,0.37,0.32,0.57c-0.2,0.02-0.4,0.07-0.59,0.05
		c-0.33-0.04-0.66-0.11-0.98-0.2c-0.28-0.08-0.54-0.19-0.82-0.28C96.48,121.62,96.73,121.52,97.05,121.39z"/>
	<path class="st2" d="M227.31,120.22c0.35-0.33,0.65-0.69,0.74-0.66c0.33,0.11,0.66,0.32,0.83,0.57c0.06,0.09-0.34,0.56-0.52,0.56
		C228.05,120.68,227.75,120.43,227.31,120.22z"/>
	<path class="st2" d="M148.14,77.48c0.3,0.46,0.59,0.7,0.54,0.87c-0.08,0.27-0.39,0.49-0.61,0.73c-0.23-0.16-0.66-0.36-0.64-0.49
		C147.5,78.29,147.79,78,148.14,77.48z"/>
	<path class="st2" d="M232.11,36.32c-0.17-0.14-0.32-0.22-0.4-0.33c-0.42-0.55-0.03-0.97,0.42-1.35c0.13-0.11,0.4-0.12,0.6-0.17
		c0.03,0.16,0.13,0.34,0.08,0.49c-0.11,0.35-0.29,0.69-0.45,1.04C232.31,36.1,232.21,36.19,232.11,36.32z"/>
	<path class="st2" d="M197.91,90.92c0.18-0.3,0.34-0.57,0.51-0.85c0.2,0.23,0.57,0.47,0.56,0.69c-0.02,0.3-0.34,0.59-0.53,0.89
		C198.28,91.42,198.12,91.2,197.91,90.92z"/>
	<path class="st2" d="M244.6,126.17c0.31-0.29,0.49-0.53,0.56-0.51c0.44,0.13,0.86,0.32,1.28,0.49c-0.22,0.17-0.46,0.5-0.65,0.49
		C245.43,126.61,245.1,126.38,244.6,126.17z"/>
	<path class="st2" d="M184.76,123.49c0.31,0.2,0.59,0.37,0.86,0.54c-0.19,0.15-0.43,0.44-0.56,0.41c-0.38-0.09-0.71-0.3-1.06-0.47
		C184.21,123.84,184.42,123.71,184.76,123.49z"/>
	<path class="st2" d="M191.76,41.31c0.31,0.35,0.68,0.59,0.63,0.74c-0.09,0.25-0.45,0.44-0.7,0.66c-0.2-0.17-0.58-0.36-0.55-0.51
		C191.18,41.93,191.47,41.69,191.76,41.31z"/>
	<path class="st2" d="M191.23,81.16c-0.21-0.37-0.39-0.53-0.35-0.63c0.14-0.33,0.36-0.63,0.55-0.95c0.22,0.18,0.65,0.4,0.61,0.52
		C191.94,80.41,191.62,80.68,191.23,81.16z"/>
	<path class="st2" d="M158.18,91.41c0.13-0.35,0.14-0.62,0.31-0.78c0.31-0.3,0.71-0.53,1.08-0.79c-0.13,0.32-0.24,0.65-0.39,0.97
		c-0.1,0.22-0.23,0.44-0.41,0.61C158.7,91.49,158.44,91.43,158.18,91.41z"/>
	<path class="st2" d="M197.42,132.86c0.33,0.05,0.53,0.08,0.53,0.08c-0.06,0.35-0.07,0.73-0.25,1.04c-0.16,0.27-0.51,0.47-0.77,0.7
		c-0.07-0.06-0.21-0.14-0.19-0.19C196.95,133.94,197.2,133.39,197.42,132.86z"/>
	<path class="st2" d="M193.14,98.07c0.27,0.27,0.53,0.46,0.5,0.51c-0.25,0.33-0.54,0.63-0.86,0.92c-0.02,0.02-0.47-0.23-0.46-0.25
		C192.54,98.89,192.8,98.55,193.14,98.07z"/>
	<path class="st2" d="M125.17,38.94c-0.52-0.13-0.87-0.21-1.23-0.3c0.41-0.18,0.8-0.41,1.24-0.53c0.18-0.05,0.45,0.16,0.68,0.25
		C125.63,38.55,125.4,38.75,125.17,38.94z"/>
	<path class="st2" d="M298.39,46.43c-0.33-0.35-0.61-0.53-0.68-0.76c-0.05-0.17,0.16-0.4,0.25-0.61c0.26,0.2,0.58,0.37,0.75,0.61
		C298.79,45.79,298.56,46.05,298.39,46.43z"/>
	<path class="st2" d="M115.28,73.4c0.39,0.27,0.75,0.46,0.72,0.52c-0.16,0.32-0.42,0.6-0.64,0.9c-0.21-0.12-0.6-0.26-0.58-0.35
		C114.85,74.16,115.05,73.86,115.28,73.4z"/>
	<path class="st2" d="M204.78,72.45c0.17-0.02,0.35-0.07,0.51-0.05c0.47,0.05,0.93,0.13,1.4,0.19c-0.48,0.14-0.95,0.36-1.44,0.41
		c-0.44,0.05-0.9-0.08-1.35-0.14c-0.17-0.02-0.33-0.06-0.49-0.09c0.17-0.08,0.33-0.18,0.51-0.22
		C204.2,72.49,204.49,72.48,204.78,72.45L204.78,72.45z"/>
	<path class="st2" d="M286.35,100.41c0.57-0.27,0.87-0.46,1.2-0.54c0.14-0.03,0.36,0.16,0.54,0.25c-0.26,0.21-0.48,0.48-0.78,0.62
		C287.18,100.8,286.87,100.6,286.35,100.41z"/>
	<path class="st2" d="M135.46,132.27c0.25,0.21,0.56,0.36,0.55,0.51c-0.01,0.16-0.35,0.47-0.46,0.44c-0.26-0.05-0.47-0.26-0.7-0.41
		C135.03,132.66,135.2,132.5,135.46,132.27z"/>
	<path class="st2" d="M138.2,130.94c0.41-0.32,0.6-0.59,0.85-0.64c0.23-0.04,0.52,0.16,0.79,0.26c-0.23,0.18-0.42,0.42-0.69,0.52
		C138.96,131.14,138.68,131.02,138.2,130.94z"/>
	<path class="st2" d="M154.09,125.13c0.41-0.21,0.65-0.4,0.71-0.36c0.39,0.23,0.74,0.5,1.1,0.76c-0.16,0.11-0.39,0.33-0.47,0.3
		C155.03,125.66,154.66,125.44,154.09,125.13z"/>
	<path class="st2" d="M145.01,154.39c0.46-0.27,0.73-0.5,1.06-0.59c0.18-0.05,0.46,0.12,0.7,0.2c-0.28,0.27-0.53,0.57-0.86,0.78
		C145.83,154.83,145.47,154.6,145.01,154.39z"/>
	<path class="st2" d="M229.3,142.67c0.2-0.33,0.34-0.56,0.48-0.79c0.16,0.28,0.4,0.54,0.46,0.83c0.05,0.25-0.1,0.52-0.16,0.78
		C229.83,143.22,229.58,142.95,229.3,142.67z"/>
	<path class="st2" d="M215.56,133.94c0.63-0.57,1.09-0.98,1.54-1.39c0.1,0.08,0.31,0.22,0.29,0.24c-0.33,0.43-0.68,0.86-1.07,1.26
		C216.28,134.1,216,134.01,215.56,133.94z"/>
	<path class="st2" d="M231.27,50.77c0.17-0.23,0.31-0.41,0.44-0.59c0.19,0.2,0.5,0.39,0.54,0.61c0.03,0.2-0.24,0.43-0.38,0.65
		C231.68,51.22,231.49,51.01,231.27,50.77z"/>
	<path class="st2" d="M117.97,61.74c0.46-0.3,0.67-0.52,0.94-0.58c0.2-0.05,0.47,0.11,0.71,0.18c-0.17,0.2-0.28,0.5-0.51,0.57
		C118.88,61.98,118.54,61.84,117.97,61.74z"/>
	<path class="st2" d="M109.29,56.91c0.33,0.19,0.46,0.27,0.58,0.34c-0.39,0.32-0.78,0.63-1.18,0.93c-0.01,0.01-0.32-0.22-0.31-0.24
		C108.65,57.61,108.96,57.28,109.29,56.91z"/>
	<path class="st2" d="M231.37,127.48c0.32,0.14,0.59,0.26,0.85,0.38c-0.24,0.14-0.47,0.39-0.72,0.4c-0.25,0.01-0.51-0.2-0.77-0.32
		C230.93,127.81,231.12,127.66,231.37,127.48z"/>
	<path class="st2" d="M228.55,126.27c0.35-0.29,0.72-0.61,1.1-0.92c0.04-0.03,0.19,0.05,0.29,0.07c-0.11,0.24-0.17,0.52-0.35,0.72
		c-0.19,0.2-0.5,0.31-0.76,0.46C228.77,126.54,228.71,126.47,228.55,126.27z"/>
	<path class="st2" d="M274.12,117.41c0.32-0.29,0.57-0.55,0.87-0.76c0.06-0.04,0.33,0.13,0.5,0.2c-0.24,0.34-0.47,0.69-0.71,1.03
		C274.62,117.77,274.46,117.66,274.12,117.41z"/>
	<path class="st2" d="M217.97,122.14c0.51-0.36,0.86-0.62,1.24-0.85c0.02-0.02,0.32,0.19,0.3,0.21c-0.24,0.33-0.5,0.66-0.79,0.96
		C218.7,122.49,218.38,122.32,217.97,122.14z"/>
	<path class="st2" d="M222.03,34.41c0.38,0.14,0.6,0.22,0.83,0.31c-0.25,0.21-0.45,0.51-0.75,0.6c-0.24,0.08-0.6-0.1-0.9-0.16
		C221.47,34.91,221.74,34.67,222.03,34.41z"/>
	<path class="st2" d="M190.69,50.74c-0.36-0.34-0.65-0.51-0.73-0.73c-0.06-0.15,0.18-0.37,0.28-0.56c0.24,0.17,0.56,0.31,0.7,0.52
		C191.02,50.1,190.83,50.35,190.69,50.74z"/>
	<path class="st2" d="M212.71,52.27c0.63-0.23,1.11-0.42,1.6-0.57c0.06-0.02,0.19,0.14,0.29,0.22c-0.45,0.25-0.9,0.51-1.37,0.75
		C213.2,52.69,213.03,52.51,212.71,52.27z"/>
	<path class="st2" d="M114.5,110.41c0.43-0.23,0.71-0.41,1.03-0.52c0.07-0.02,0.27,0.21,0.41,0.33c-0.27,0.21-0.53,0.43-0.83,0.61
		C115.07,110.85,114.82,110.64,114.5,110.41z"/>
	<path class="st2" d="M110.87,108.46c0.22,0.03,0.52,0,0.64,0.11c0.28,0.24,0.49,0.54,0.68,0.83c0.03,0.05-0.17,0.2-0.27,0.3
		c-0.31-0.22-0.65-0.42-0.92-0.67c-0.14-0.12-0.15-0.34-0.22-0.51L110.87,108.46z"/>
	<path class="st2" d="M255.12,92.75c-0.23-0.54-0.42-0.75-0.37-0.91c0.1-0.32,0.34-0.62,0.52-0.92c0.14,0.17,0.42,0.36,0.4,0.52
		C255.61,91.77,255.41,92.09,255.12,92.75z"/>
	<path class="st2" d="M198.6,94.13c0.24,0.12,0.44,0.17,0.48,0.26c0.04,0.09-0.08,0.24-0.17,0.34c-0.06,0.07-0.19,0.1-0.29,0.13
		c-0.51,0.15-1.02,0.29-1.53,0.43c-0.01-0.04-0.04-0.11-0.02-0.13C197.58,94.82,198.09,94.48,198.6,94.13z"/>
	<path class="st2" d="M134.66,80.08c0.27,0.15,0.47,0.27,0.67,0.38c-0.24,0.17-0.46,0.41-0.74,0.47c-0.18,0.04-0.45-0.16-0.68-0.25
		C134.14,80.5,134.36,80.32,134.66,80.08z"/>
	<path class="st2" d="M268.06,82.85c0-0.42-0.06-0.85,0.02-1.27c0.04-0.22,0.34-0.41,0.52-0.61c0.14,0.24,0.45,0.54,0.37,0.72
		c-0.18,0.42-0.56,0.79-0.86,1.18L268.06,82.85z"/>
	<path class="st2" d="M108.28,78.3c0.06-0.19,0.06-0.33,0.11-0.34c0.15-0.03,0.39-0.06,0.45,0c0.4,0.43,0.76,0.88,1.12,1.33
		c0.01,0.02-0.12,0.12-0.18,0.18C109.26,79.06,108.75,78.66,108.28,78.3z"/>
	<path class="st2" d="M251.56,106.61c0.23-0.29,0.41-0.5,0.58-0.71c0.18,0.15,0.51,0.3,0.5,0.45c-0.01,0.22-0.25,0.44-0.4,0.66
		C252.05,106.89,251.85,106.77,251.56,106.61z"/>
	<path class="st2" d="M131.28,38.19c-0.4-0.18-0.75-0.35-1.11-0.52c0.16-0.1,0.35-0.29,0.49-0.27c0.4,0.06,0.78,0.22,1.16,0.33
		C131.67,37.85,131.53,37.97,131.28,38.19z"/>
	<path class="st2" d="M261.53,68.2c0.29,0.26,0.55,0.4,0.53,0.49c-0.07,0.29-0.24,0.56-0.38,0.84c-0.15-0.09-0.44-0.19-0.43-0.27
		C261.27,68.97,261.39,68.68,261.53,68.2z"/>
	<path class="st2" d="M263.06,87.07c-0.27-0.32-0.55-0.51-0.52-0.66c0.05-0.22,0.32-0.4,0.5-0.6c0.15,0.18,0.4,0.35,0.43,0.55
		C263.49,86.53,263.27,86.72,263.06,87.07z"/>
	<path class="st2" d="M136.21,83.14c-0.24-0.33-0.44-0.53-0.51-0.75c-0.03-0.08,0.25-0.23,0.39-0.35c0.19,0.19,0.43,0.36,0.55,0.58
		C136.68,82.68,136.44,82.87,136.21,83.14z"/>
	<path class="st2" d="M287.45,125.55c-0.45-0.48-0.71-0.69-0.87-0.94c-0.08-0.13,0-0.33,0.01-0.5c0.31,0.16,0.68,0.28,0.9,0.5
		C287.61,124.73,287.48,125.02,287.45,125.55z"/>
	<path class="st2" d="M264.2,74.53c0.5-0.22,0.72-0.39,0.95-0.39c0.22,0,0.44,0.18,0.66,0.28c-0.21,0.13-0.4,0.33-0.63,0.37
		C264.97,74.81,264.72,74.67,264.2,74.53z"/>
	<path class="st2" d="M155.27,100.89c0.05-0.13,0.07-0.34,0.17-0.38c0.42-0.16,0.86-0.28,1.31-0.39c0.03-0.01,0.12,0.14,0.18,0.21
		c-0.37,0.17-0.73,0.36-1.11,0.52c-0.15,0.06-0.33,0.06-0.5,0.08L155.27,100.89z"/>
	<path class="st2" d="M208.4,72.78c1.01-0.29,1.63-0.47,2.25-0.65c0,0.14,0.06,0.39-0.01,0.41c-0.46,0.19-0.94,0.35-1.43,0.48
		C209.12,73.05,208.97,72.95,208.4,72.78z"/>
	<path class="st2" d="M301.64,89.25c0.29-0.34,0.49-0.58,0.7-0.82c0.16,0.1,0.46,0.24,0.44,0.29c-0.11,0.27-0.3,0.53-0.49,0.77
		C302.27,89.51,301.97,89.37,301.64,89.25z"/>
	<path class="st2" d="M196.19,125.71c0.28-0.2,0.52-0.47,0.85-0.59c0.26-0.1,0.61-0.02,0.92-0.02c-0.2,0.19-0.35,0.44-0.6,0.55
		c-0.31,0.14-0.7,0.16-1.05,0.24C196.27,125.83,196.23,125.77,196.19,125.71z"/>
	<path class="st2" d="M244.69,95c0.15,0,0.21,0,0.26,0c-0.06,0.3-0.02,0.66-0.22,0.88c-0.17,0.18-0.61,0.2-0.94,0.29
		c0.01-0.19-0.07-0.44,0.05-0.57C244.09,95.36,244.44,95.17,244.69,95z"/>
	<path class="st2" d="M127.09,149.39c0.15-0.29,0.33-0.62,0.5-0.94c0.09,0.04,0.27,0.07,0.27,0.11c0.03,0.32,0.08,0.64,0.01,0.95
		c-0.05,0.18-0.32,0.32-0.49,0.47C127.3,149.81,127.22,149.65,127.09,149.39z"/>
	<path class="st2" d="M113.09,130.06c0.33-0.29,0.65-0.58,1-0.85c0.06-0.05,0.26,0.03,0.4,0.05c-0.12,0.25-0.19,0.52-0.38,0.73
		c-0.15,0.16-0.44,0.23-0.68,0.32C113.39,130.31,113.28,130.2,113.09,130.06z"/>
	<path class="st2" d="M129.83,128.86c-0.06,0.31-0.12,0.62-0.18,0.93c-0.45-0.15-0.9-0.29-1.35-0.44c0.27-0.14,0.52-0.3,0.81-0.41
		c0.2-0.08,0.45-0.08,0.67-0.11L129.83,128.86z"/>
	<path class="st2" d="M143.91,37.58c0.68-0.41,0.99-0.64,1.35-0.8c0.1-0.04,0.33,0.13,0.51,0.21c-0.28,0.21-0.53,0.45-0.84,0.63
		C144.8,37.69,144.55,37.61,143.91,37.58z"/>
	<path class="st2" d="M193.45,61.57c0.24-0.11,0.61-0.36,0.68-0.31c0.24,0.16,0.45,0.41,0.52,0.66c0.04,0.14-0.22,0.34-0.35,0.51
		C194.1,62.22,193.9,62.02,193.45,61.57z"/>
	<path class="st2" d="M141.27,135.22c-0.32-0.16-0.55-0.27-0.78-0.38c0.15-0.15,0.31-0.43,0.46-0.43c0.22,0,0.47,0.18,0.63,0.33
		C141.63,134.78,141.41,135.01,141.27,135.22z"/>
	<path class="st2" d="M105.94,75.56c0.22,0.32,0.43,0.47,0.4,0.59c-0.06,0.25-0.24,0.48-0.37,0.72c-0.16-0.14-0.46-0.28-0.46-0.42
		C105.52,76.22,105.72,75.98,105.94,75.56z"/>
	<path class="st2" d="M174.72,83.95c0.41-0.5,0.72-0.89,1.05-1.27c0.02-0.02,0.17,0.03,0.25,0.05c-0.22,0.47-0.44,0.94-0.68,1.4
		C175.34,84.14,175.03,84.05,174.72,83.95z"/>
	<path class="st2" d="M183.33,99.61c0.15-0.23,0.27-0.41,0.39-0.59c0.2,0.25,0.45,0.49,0.56,0.76c0.04,0.11-0.26,0.31-0.4,0.47
		C183.7,100.05,183.53,99.85,183.33,99.61z"/>
	<path class="st2" d="M139.82,38.41c-0.25-0.18-0.43-0.3-0.6-0.42c0.21-0.13,0.41-0.31,0.64-0.35c0.14-0.03,0.35,0.15,0.52,0.23
		C140.23,38.02,140.06,38.18,139.82,38.41z"/>
	<path class="st2" d="M138.98,128.36c0.54-0.34,0.81-0.54,1.12-0.68c0.08-0.03,0.29,0.16,0.45,0.25c-0.23,0.18-0.44,0.39-0.7,0.52
		C139.72,128.51,139.48,128.42,138.98,128.36z"/>
	<path class="st2" d="M230.33,117.93c0.2,0.24,0.42,0.44,0.39,0.47c-0.21,0.19-0.44,0.39-0.72,0.5c-0.1,0.04-0.33-0.13-0.5-0.21
		C229.74,118.47,229.98,118.25,230.33,117.93z"/>
	<path class="st2" d="M283.31,31.2c0.39-0.23,0.6-0.44,0.79-0.43c0.19,0.01,0.37,0.23,0.56,0.36c-0.15,0.12-0.3,0.32-0.46,0.33
		C283.98,31.47,283.75,31.34,283.31,31.2z"/>
	<path class="st2" d="M165.32,47.97c-0.37-0.33-0.63-0.5-0.78-0.72c-0.05-0.07,0.2-0.27,0.31-0.42c0.22,0.17,0.49,0.32,0.65,0.52
		C165.57,47.44,165.43,47.65,165.32,47.97z"/>
	<path class="st2" d="M187.68,50.43c-0.26-0.31-0.5-0.47-0.46-0.57c0.09-0.25,0.31-0.47,0.48-0.7c0.17,0.08,0.51,0.2,0.49,0.25
		C188.1,49.7,187.93,49.97,187.68,50.43z"/>
	<path class="st2" d="M198.77,83c0.07,0.17,0.26,0.37,0.2,0.51c-0.09,0.22-0.3,0.53-0.52,0.57c-0.22,0.04-0.51-0.21-0.77-0.33
		c0.25-0.16,0.51-0.33,0.76-0.49C198.54,83.17,198.66,83.08,198.77,83z"/>
	<path class="st2" d="M155.31,100.93c-0.22,0.32-0.4,0.68-0.69,0.95c-0.11,0.1-0.5-0.02-0.77-0.05c0.1-0.19,0.14-0.45,0.31-0.55
		c0.33-0.18,0.73-0.26,1.11-0.39L155.31,100.93z"/>
	<path class="st2" d="M125.33,102.72c0.22-0.09,0.46-0.27,0.66-0.25c0.18,0.02,0.32,0.26,0.48,0.4c-0.22,0.1-0.43,0.25-0.67,0.29
		c-0.2,0.03-0.43-0.06-0.65-0.1C125.21,102.94,125.27,102.83,125.33,102.72z"/>
	<path class="st2" d="M272.03,97.34c-0.19-0.19-0.29-0.28-0.38-0.38c0.29-0.2,0.58-0.4,0.89-0.58c0.03-0.02,0.22,0.16,0.34,0.24
		C272.61,96.85,272.35,97.07,272.03,97.34z"/>
	<path class="st2" d="M144.22,109.89c-0.25-0.2-0.47-0.32-0.45-0.37c0.12-0.29,0.3-0.57,0.47-0.85c0.13,0.07,0.37,0.17,0.36,0.22
		C144.53,109.19,144.39,109.48,144.22,109.89z"/>
	<path class="st2" d="M243.14,111.83c-0.48-0.34-0.63-0.45-0.78-0.56c0.15-0.12,0.29-0.31,0.45-0.33c0.16-0.02,0.45,0.12,0.49,0.25
		C243.36,111.34,243.23,111.54,243.14,111.83z"/>
	<path class="st2" d="M243.31,97.48c0.1,0.18,0.32,0.4,0.25,0.5c-0.11,0.17-0.38,0.33-0.61,0.39c-0.14,0.04-0.35-0.13-0.53-0.2
		C242.61,98.02,242.81,97.87,243.31,97.48z"/>
	<path class="st2" d="M112.78,82.45c0.46-0.31,0.77-0.54,1.11-0.74c0.05-0.03,0.23,0.11,0.35,0.17c-0.3,0.26-0.59,0.53-0.91,0.77
		C113.29,82.67,113.1,82.56,112.78,82.45z"/>
	<path class="st2" d="M177.85,110c-0.05,0.4-0.07,0.59-0.1,0.77c-0.02,0.09-0.06,0.17-0.09,0.26c-0.09-0.09-0.2-0.17-0.25-0.28
		c-0.09-0.17-0.14-0.35-0.19-0.53c-0.07-0.25-0.12-0.51-0.18-0.77c0.11-0.01,0.27-0.06,0.31-0.02
		C177.57,109.66,177.76,109.9,177.85,110z"/>
	<path class="st2" d="M153.46,114.12c0.36-0.4,0.48-0.53,0.59-0.66c0.22,0.17,0.49,0.32,0.65,0.52c0.05,0.07-0.19,0.42-0.25,0.41
		C154.14,114.36,153.85,114.24,153.46,114.12z"/>
	<path class="st2" d="M221.59,109.62c0.24,0.16,0.39,0.27,0.55,0.38c-0.15,0.12-0.29,0.32-0.45,0.34c-0.16,0.02-0.35-0.15-0.53-0.23
		C221.28,109.96,221.4,109.83,221.59,109.62z"/>
	<path class="st2" d="M114.88,83.89c-0.31-0.17-0.56-0.3-0.81-0.43c0.17-0.1,0.37-0.31,0.51-0.29c0.28,0.04,0.53,0.21,0.8,0.32
		C115.23,83.6,115.08,83.72,114.88,83.89z"/>
	<path class="st2" d="M157.29,97.66c0.18,0.17,0.36,0.31,0.35,0.33c-0.27,0.28-0.56,0.55-0.86,0.8c-0.01,0.01-0.3-0.17-0.29-0.18
		C156.73,98.31,156.98,98.02,157.29,97.66z"/>
	<path class="st2" d="M124.27,95.37c0.31-0.13,0.53-0.3,0.66-0.26c0.22,0.06,0.37,0.26,0.55,0.4c-0.19,0.14-0.41,0.41-0.55,0.38
		C124.71,95.85,124.56,95.61,124.27,95.37z"/>
	<path class="st2" d="M203.28,103.41c-0.23-0.19-0.45-0.31-0.43-0.36c0.1-0.24,0.27-0.46,0.42-0.68c0.12,0.08,0.35,0.17,0.34,0.23
		C203.55,102.85,203.42,103.08,203.28,103.41z"/>
	<path class="st2" d="M221.88,131.43c0.36-0.15,0.58-0.31,0.82-0.34c0.16-0.02,0.36,0.13,0.54,0.2c-0.27,0.14-0.53,0.3-0.82,0.4
		C222.34,131.72,222.17,131.57,221.88,131.43z"/>
	<path class="st2" d="M142.77,135.33c0.53-0.5,0.71-0.66,0.88-0.83c0.13,0.12,0.38,0.27,0.35,0.36c-0.06,0.2-0.22,0.43-0.43,0.53
		C143.42,135.47,143.14,135.37,142.77,135.33z"/>
	<path class="st2" d="M138.11,39.41c-0.38-0.21-0.72-0.4-1.06-0.59c0.1-0.09,0.26-0.27,0.31-0.25c0.39,0.15,0.77,0.33,1.14,0.51
		C138.4,39.16,138.31,39.24,138.11,39.41z"/>
	<path class="st2" d="M179.87,143.03c-0.07,0.18-0.07,0.42-0.22,0.52c-0.33,0.22-0.74,0.37-1.12,0.54
		c-0.02,0.01-0.18-0.18-0.17-0.19c0.27-0.23,0.54-0.46,0.84-0.66c0.17-0.11,0.41-0.17,0.62-0.25L179.87,143.03z"/>
	<path class="st2" d="M235.73,139c0.45,0.29,0.74,0.46,0.99,0.66c0.02,0.01-0.28,0.37-0.33,0.36c-0.3-0.09-0.59-0.22-0.82-0.39
		C235.49,139.58,235.63,139.34,235.73,139z"/>
	<path class="st2" d="M270.42,117.84c0.23-0.16,0.4-0.33,0.44-0.31c0.31,0.15,0.6,0.33,0.9,0.5c-0.09,0.09-0.23,0.27-0.26,0.25
		C271.15,118.17,270.84,118.02,270.42,117.84z"/>
	<path class="st2" d="M228.83,36.78c-0.29-0.33-0.5-0.55-0.66-0.78c-0.03-0.04,0.26-0.28,0.29-0.27c0.32,0.16,0.61,0.34,0.91,0.52
		C229.24,36.37,229.11,36.49,228.83,36.78z"/>
	<path class="st2" d="M115.14,98.85c0.24-0.19,0.4-0.37,0.62-0.48c0.05-0.03,0.27,0.17,0.41,0.27c-0.18,0.16-0.35,0.34-0.55,0.48
		C115.58,99.14,115.37,98.98,115.14,98.85z"/>
	<path class="st2" d="M130.18,84.13c-0.54-0.24-0.76-0.34-0.98-0.44c0.15-0.11,0.3-0.3,0.44-0.3c0.23,0,0.52,0.09,0.67,0.22
		C130.39,83.68,130.23,83.93,130.18,84.13z"/>
	<path class="st2" d="M234.83,142.9c0.29-0.21,0.53-0.4,0.79-0.55c0.02-0.01,0.24,0.2,0.36,0.3c-0.24,0.19-0.47,0.38-0.73,0.54
		C235.22,143.21,235.03,143.04,234.83,142.9z"/>
	<path class="st2" d="M264.77,140.15c-0.22-0.22-0.34-0.34-0.46-0.47c0.21-0.13,0.41-0.28,0.65-0.37c0.06-0.02,0.35,0.2,0.33,0.23
		C265.18,139.73,265.01,139.89,264.77,140.15z"/>
	<path class="st2" d="M123.42,88c0.27,0.42,0.46,0.58,0.43,0.7c-0.04,0.19-0.24,0.36-0.38,0.54c-0.09-0.11-0.26-0.21-0.26-0.32
		C123.2,88.71,123.29,88.5,123.42,88z"/>
	<path class="st2" d="M257.6,53.64c0.14,0.25,0.28,0.4,0.24,0.45c-0.25,0.3-0.53,0.58-0.83,0.84c-0.02,0.02-0.23-0.09-0.35-0.15
		C256.94,54.44,257.22,54.1,257.6,53.64z"/>
	<path class="st2" d="M208.44,54.94c0.2,0.08,0.33,0.13,0.46,0.19c-0.19,0.22-0.36,0.45-0.6,0.63c-0.05,0.04-0.33-0.11-0.51-0.18
		C208,55.37,208.2,55.17,208.44,54.94z"/>
	<path class="st2" d="M126.37,132.86c0.37-0.31,0.66-0.56,0.96-0.8c0.08,0.1,0.24,0.23,0.21,0.28c-0.19,0.27-0.41,0.51-0.65,0.75
		C126.87,133.1,126.65,132.98,126.37,132.86z"/>
	<path class="st2" d="M123.32,133.97c-0.08-0.29-0.18-0.58-0.22-0.87c-0.01-0.07,0.22-0.15,0.33-0.23c0.11,0.28,0.24,0.55,0.31,0.83
		c0.03,0.11-0.07,0.25-0.11,0.38C123.53,134.04,123.42,134,123.32,133.97z"/>
	<path class="st2" d="M165.06,48.98c0.26,0.04,0.36,0.06,0.45,0.07c-0.41,0.3-0.83,0.61-1.24,0.91c-0.07-0.06-0.2-0.18-0.19-0.18
		C164.43,49.49,164.78,49.21,165.06,48.98z"/>
	<path class="st2" d="M206.71,122.39c0.12-0.2,0.22-0.35,0.31-0.5c0.15,0.1,0.41,0.21,0.41,0.31c-0.01,0.19-0.17,0.38-0.26,0.57
		C207.03,122.65,206.89,122.54,206.71,122.39z"/>
	<path class="st2" d="M310.89,81.43c0.02-0.05,0.06-0.16,0.1-0.28c0.14,0.07,0.3,0.13,0.4,0.22c0.11,0.1,0.25,0.24,0.24,0.36
		c-0.03,0.35-0.13,0.7-0.21,1.05c-0.12-0.29-0.24-0.58-0.36-0.88C311.02,81.78,310.97,81.64,310.89,81.43z"/>
	<path class="st2" d="M237.91,122.37c0.08-0.18,0.14-0.29,0.19-0.41c0.22,0.25,0.45,0.5,0.63,0.77c0.02,0.03-0.17,0.17-0.27,0.26
		C238.28,122.78,238.09,122.57,237.91,122.37z"/>
	<path class="st2" d="M239.69,102.27c-0.83,0.13-1.67,0.26-2.5,0.38c-0.08,0.01-0.18-0.1-0.26-0.15c0.11-0.07,0.21-0.2,0.32-0.2
		c0.8-0.03,1.6-0.04,2.4-0.06L239.69,102.27z"/>
	<path class="st2" d="M145.71,112.54c-0.08-0.13-0.26-0.3-0.21-0.35c0.14-0.17,0.33-0.34,0.55-0.43c0.09-0.04,0.31,0.14,0.47,0.21
		C146.31,112.12,146.11,112.26,145.71,112.54z"/>
	<path class="st2" d="M216.99,100.86c0.4-0.11,0.58-0.2,0.75-0.19c0.12,0.01,0.23,0.16,0.34,0.25c-0.14,0.11-0.28,0.31-0.42,0.31
		C217.51,101.23,217.35,101.06,216.99,100.86z"/>
	<path class="st2" d="M239.72,99.35c-0.28,0.12-0.46,0.26-0.64,0.26c-0.12,0-0.24-0.2-0.36-0.31c0.19-0.08,0.37-0.2,0.57-0.23
		C239.37,99.05,239.5,99.2,239.72,99.35z"/>
	<path class="st2" d="M300.49,87.05c0.14-0.19,0.24-0.33,0.34-0.46c0.13,0.13,0.33,0.25,0.38,0.41c0.04,0.15-0.07,0.34-0.12,0.51
		C300.91,87.36,300.73,87.23,300.49,87.05z"/>
	<path class="st2" d="M156.78,59.49c0.13-0.18,0.23-0.33,0.33-0.47c0.15,0.16,0.37,0.31,0.42,0.49c0.03,0.1-0.19,0.26-0.3,0.4
		C157.1,59.77,156.96,59.65,156.78,59.49z"/>
	<path class="st2" d="M181.37,67.74c0.2,0.21,0.38,0.31,0.37,0.39c-0.04,0.21-0.16,0.41-0.25,0.62c-0.14-0.09-0.39-0.19-0.38-0.28
		C181.1,68.27,181.24,68.06,181.37,67.74z"/>
	<path class="st2" d="M195.11,87.79c-0.22,0.15-0.41,0.3-0.44,0.29c-0.23-0.15-0.44-0.32-0.65-0.49c0.13-0.06,0.3-0.19,0.39-0.16
		C194.63,87.49,194.82,87.63,195.11,87.79z"/>
	<path class="st2" d="M176.49,126.24c-0.3,0.16-0.48,0.32-0.68,0.34c-0.11,0.01-0.34-0.22-0.35-0.35c-0.01-0.14,0.18-0.3,0.28-0.45
		C175.91,125.89,176.07,125.98,176.49,126.24z"/>
	<path class="st2" d="M109.86,49.85c0.42-0.19,0.84-0.39,1.26-0.57c0.02-0.01,0.12,0.12,0.19,0.18c-0.47,0.14-0.94,0.29-1.4,0.43
		L109.86,49.85z"/>
	<path class="st2" d="M246.02,108.74c0.17-0.23,0.31-0.42,0.46-0.61c0.1,0.09,0.29,0.19,0.27,0.26c-0.06,0.2-0.2,0.39-0.31,0.59
		C246.31,108.9,246.19,108.84,246.02,108.74z"/>
	<path class="st2" d="M174.07,39.19c0.19-0.09,0.36-0.22,0.44-0.19c0.12,0.04,0.24,0.21,0.23,0.31c-0.01,0.08-0.24,0.23-0.33,0.21
		C174.29,39.5,174.21,39.34,174.07,39.19z"/>
	<path class="st2" d="M174.74,53.78c0.22-0.14,0.38-0.24,0.55-0.35c0.09,0.1,0.29,0.23,0.26,0.29c-0.09,0.15-0.26,0.26-0.4,0.39
		C175.03,54.02,174.93,53.93,174.74,53.78z"/>
	<path class="st2" d="M164.89,122.95c0.3-0.18,0.44-0.32,0.62-0.37c0.12-0.03,0.29,0.08,0.43,0.12c-0.14,0.13-0.25,0.29-0.42,0.36
		C165.42,123.11,165.23,123.02,164.89,122.95z"/>
	<path class="st2" d="M166.96,49.42c0.39-0.1,0.59-0.19,0.8-0.19c0.12,0,0.24,0.13,0.37,0.2c-0.19,0.08-0.38,0.19-0.58,0.22
		C167.43,49.67,167.28,49.56,166.96,49.42z"/>
	<path class="st2" d="M121.13,74.73c0.1-0.2,0.16-0.33,0.21-0.45c0.16,0.1,0.36,0.18,0.46,0.31c0.05,0.07-0.07,0.24-0.12,0.36
		C121.51,74.88,121.34,74.81,121.13,74.73z"/>
	<path class="st2" d="M191.34,147.72c0.11,0.2,0.26,0.36,0.21,0.43c-0.17,0.23-0.39,0.43-0.63,0.63c-0.03,0.02-0.23-0.1-0.35-0.16
		C190.76,148.39,190.95,148.17,191.34,147.72z"/>
	<path class="st2" d="M147.86,156.62c0.37-0.14,0.59-0.27,0.84-0.31c0.08-0.01,0.21,0.17,0.32,0.26c-0.22,0.11-0.43,0.25-0.66,0.32
		C148.28,156.91,148.13,156.77,147.86,156.62z"/>
	<path class="st2" d="M137.74,97.6c-0.18-0.13-0.33-0.24-0.48-0.35c0.12-0.08,0.26-0.23,0.36-0.22c0.19,0.03,0.35,0.16,0.53,0.25
		C138.04,97.37,137.92,97.46,137.74,97.6z"/>
	<path class="st2" d="M285.51,87.41c0.16-0.2,0.27-0.34,0.38-0.47c0.16,0.12,0.4,0.21,0.45,0.35c0.04,0.12-0.15,0.29-0.24,0.44
		C285.93,87.64,285.77,87.55,285.51,87.41z"/>
	<path class="st2" d="M134.83,77.59c-0.42,0.19-0.85,0.39-1.28,0.57c-0.02,0.01-0.12-0.12-0.18-0.19c0.48-0.13,0.95-0.27,1.43-0.4
		L134.83,77.59z"/>
	<path class="st2" d="M147.28,110.32c0.17-0.19,0.29-0.33,0.41-0.46c0.15,0.11,0.38,0.21,0.42,0.35c0.04,0.13-0.13,0.3-0.21,0.45
		C147.73,110.56,147.55,110.47,147.28,110.32z"/>
	<path class="st2" d="M224.96,70.08c0.25-0.18,0.34-0.31,0.46-0.33c0.2-0.03,0.41,0.02,0.61,0.04c-0.11,0.11-0.19,0.29-0.32,0.33
		C225.54,70.17,225.33,70.11,224.96,70.08z"/>
	<path class="st2" d="M255.63,83.14c0.41-0.25,0.65-0.43,0.93-0.56c0.09-0.04,0.27,0.06,0.4,0.1c-0.23,0.19-0.45,0.4-0.7,0.56
		C256.19,83.28,255.99,83.2,255.63,83.14z"/>
	<path class="st2" d="M110.79,108.52c-0.22-0.2-0.5-0.38-0.65-0.61c-0.09-0.13,0.02-0.35,0.03-0.53c0.16,0.13,0.38,0.25,0.48,0.41
		c0.12,0.2,0.15,0.45,0.22,0.68L110.79,108.52z"/>
	<path class="st2" d="M120.11,106.16c0.26-0.16,0.41-0.3,0.6-0.36c0.08-0.02,0.23,0.13,0.35,0.21c-0.14,0.13-0.26,0.29-0.44,0.37
		C120.55,106.41,120.36,106.27,120.11,106.16z"/>
	<path class="st2" d="M151.14,139.33c0.15-0.15,0.27-0.27,0.39-0.38c0.1,0.09,0.3,0.18,0.29,0.26c-0.02,0.14-0.16,0.27-0.25,0.41
		C151.45,139.54,151.34,139.46,151.14,139.33z"/>
	<path class="st2" d="M231.63,136.75c0.28-0.22,0.48-0.36,0.68-0.51c0.07,0.1,0.24,0.24,0.2,0.3c-0.1,0.16-0.27,0.3-0.44,0.41
		C232.03,136.97,231.85,136.85,231.63,136.75z"/>
	<path class="st2" d="M249.68,91.29c0.18,0.12,0.29,0.2,0.4,0.27c-0.14,0.12-0.26,0.27-0.43,0.35c-0.06,0.03-0.24-0.1-0.36-0.16
		C249.41,91.61,249.53,91.47,249.68,91.29z"/>
	<path class="st2" d="M125.86,159.59c0.16-0.12,0.26-0.26,0.37-0.27c0.1,0,0.27,0.15,0.27,0.24c0,0.09-0.16,0.24-0.27,0.26
		C126.15,159.84,126.02,159.7,125.86,159.59z"/>
	<path class="st2" d="M201.44,81.74c0.14,0.25,0.28,0.39,0.25,0.45c-0.1,0.16-0.27,0.3-0.43,0.43c-0.02,0.01-0.3-0.15-0.29-0.18
		C201.07,82.25,201.21,82.06,201.44,81.74z"/>
	<path class="st2" d="M184.8,82.32c-0.17-0.1-0.36-0.16-0.38-0.24c-0.02-0.1,0.1-0.22,0.17-0.33c0.13,0.05,0.33,0.09,0.36,0.16
		C184.98,82,184.87,82.14,184.8,82.32z"/>
	<path class="st2" d="M130.23,146.65c0.17-0.12,0.3-0.22,0.44-0.31c0.09,0.1,0.27,0.22,0.25,0.3c-0.04,0.13-0.21,0.25-0.32,0.37
		C130.5,146.91,130.4,146.82,130.23,146.65z"/>
	<path class="st2" d="M169.34,142.41c0.18,0.12,0.29,0.19,0.4,0.27c-0.14,0.12-0.27,0.27-0.44,0.35c-0.06,0.03-0.23-0.11-0.35-0.17
		C169.07,142.72,169.18,142.59,169.34,142.41z"/>
	<path class="st2" d="M214.6,70.03c-0.19,0.12-0.38,0.26-0.4,0.25c-0.15-0.1-0.29-0.23-0.37-0.37c-0.02-0.04,0.23-0.24,0.25-0.23
		C214.25,69.76,214.39,69.88,214.6,70.03z"/>
	<path class="st2" d="M308.9,79.86c0.17-0.09,0.32-0.22,0.4-0.2c0.12,0.03,0.25,0.18,0.26,0.27c0,0.07-0.21,0.23-0.3,0.21
		C309.14,80.13,309.05,79.99,308.9,79.86z"/>
	<path class="st2" d="M266.29,113.47c-0.13-0.16-0.29-0.31-0.27-0.33c0.13-0.13,0.29-0.24,0.47-0.32c0.04-0.01,0.28,0.2,0.26,0.23
		C266.66,113.19,266.5,113.3,266.29,113.47z"/>
	<path class="st2" d="M122.88,78.34c-0.15-0.25-0.28-0.38-0.29-0.53c-0.01-0.09,0.16-0.2,0.25-0.3c0.12,0.13,0.28,0.24,0.33,0.39
		C123.19,77.98,123.03,78.11,122.88,78.34z"/>
	<path class="st2" d="M163.08,67.89c0.16-0.1,0.3-0.24,0.38-0.22c0.12,0.02,0.27,0.16,0.28,0.26c0.01,0.08-0.19,0.24-0.28,0.23
		C163.34,68.15,163.24,68.01,163.08,67.89z"/>
	<path class="st2" d="M112.11,67.58c0.36-0.19,0.57-0.32,0.81-0.4c0.06-0.02,0.21,0.12,0.31,0.19c-0.21,0.13-0.41,0.27-0.64,0.37
		C112.52,67.77,112.37,67.67,112.11,67.58z"/>
	<path class="st2" d="M263.81,50.32c0.36-0.2,0.56-0.34,0.8-0.42c0.09-0.03,0.24,0.08,0.37,0.13c-0.19,0.15-0.37,0.32-0.58,0.43
		C264.31,50.5,264.13,50.4,263.81,50.32z"/>
	<path class="st2" d="M236.03,106.11c-0.02,0.14,0.02,0.3-0.06,0.41c-0.16,0.21-0.38,0.39-0.58,0.58c-0.01,0.01-0.14-0.05-0.14-0.05
		c0.1-0.24,0.19-0.48,0.33-0.7c0.07-0.11,0.26-0.18,0.39-0.26L236.03,106.11z"/>
	<path class="st2" d="M240.71,108.6c0.25-0.19,0.37-0.33,0.54-0.39c0.1-0.03,0.27,0.07,0.4,0.11c-0.12,0.13-0.21,0.3-0.37,0.39
		C241.21,108.75,241.02,108.66,240.71,108.6z"/>
	<path class="st2" d="M237.6,48.69c0.17,0.09,0.29,0.16,0.41,0.22c-0.08,0.1-0.14,0.26-0.25,0.29c-0.1,0.03-0.25-0.09-0.38-0.14
		C237.44,48.96,237.51,48.85,237.6,48.69z"/>
	<path class="st2" d="M125.73,130.53c0.19-0.12,0.31-0.25,0.42-0.25c0.11,0,0.22,0.13,0.32,0.21c-0.11,0.08-0.2,0.22-0.33,0.24
		C126.04,130.74,125.91,130.62,125.73,130.53z"/>
	<path class="st2" d="M117.47,87.94c0.12-0.15,0.2-0.24,0.27-0.32c0.21,0.12,0.43,0.24,0.62,0.38c0.03,0.02-0.11,0.19-0.17,0.29
		C117.97,88.18,117.75,88.07,117.47,87.94z"/>
	<path class="st2" d="M197.85,75.5c0.16-0.15,0.25-0.24,0.35-0.33c0.1,0.09,0.23,0.17,0.29,0.28c0.02,0.04-0.11,0.2-0.16,0.2
		C198.19,75.63,198.06,75.57,197.85,75.5z"/>
	<path class="st2" d="M180.33,79.32c0.38,0.18,0.76,0.36,1.13,0.54c-0.07,0.06-0.2,0.18-0.21,0.18c-0.33-0.22-0.65-0.45-0.96-0.69
		L180.33,79.32z"/>
	<path class="st2" d="M318.92,114.96c-0.6-0.11-1.09-0.18-1.56-0.3c-0.07-0.02-0.08-0.45-0.01-0.47c0.46-0.15,0.95-0.35,1.42-0.33
		c0.39,0.02,0.75,0.31,1.12,0.48C319.57,114.54,319.25,114.74,318.92,114.96z"/>
	<path class="st2" d="M308.35,98.52c-0.67,0.06-1.34,0.15-2.01,0.16c-0.14,0-0.4-0.24-0.4-0.36c0-0.12,0.32-0.37,0.42-0.34
		c0.68,0.14,1.35,0.33,2.02,0.51L308.35,98.52z"/>
	<path class="st2" d="M325.96,110.07c0.18-0.3,0.34-0.57,0.51-0.85c0.2,0.23,0.57,0.47,0.56,0.69c-0.02,0.3-0.34,0.59-0.53,0.89
		C326.34,110.58,326.17,110.36,325.96,110.07z"/>
	<path class="st2" d="M319.29,100.31c-0.21-0.37-0.39-0.53-0.35-0.63c0.14-0.33,0.36-0.63,0.55-0.95c0.22,0.18,0.65,0.4,0.61,0.52
		C319.99,99.57,319.68,99.84,319.29,100.31z"/>
	<path class="st2" d="M321.2,117.23c0.27,0.27,0.53,0.46,0.5,0.51c-0.25,0.33-0.54,0.63-0.86,0.92c-0.02,0.02-0.47-0.23-0.46-0.25
		C320.59,118.05,320.85,117.71,321.2,117.23z"/>
	<path class="st2" d="M326.66,113.29c0.24,0.12,0.44,0.17,0.48,0.26c0.04,0.09-0.08,0.24-0.17,0.34c-0.06,0.07-0.19,0.1-0.29,0.13
		c-0.51,0.15-1.02,0.29-1.53,0.43c-0.01-0.04-0.04-0.11-0.02-0.13C325.63,113.98,326.15,113.63,326.66,113.29z"/>
	<path class="st2" d="M302.78,103.11c0.41-0.5,0.72-0.89,1.05-1.27c0.02-0.02,0.17,0.03,0.25,0.05c-0.22,0.47-0.44,0.94-0.68,1.4
		C303.4,103.3,303.09,103.2,302.78,103.11z"/>
	<path class="st2" d="M326.83,102.15c0.07,0.17,0.26,0.37,0.2,0.51c-0.09,0.22-0.3,0.53-0.52,0.57c-0.22,0.04-0.51-0.21-0.77-0.33
		c0.25-0.16,0.51-0.33,0.76-0.49C326.6,102.33,326.71,102.24,326.83,102.15z"/>
	<path class="st2" d="M323.16,106.95c-0.22,0.15-0.41,0.3-0.44,0.29c-0.23-0.15-0.44-0.32-0.65-0.49c0.13-0.06,0.3-0.19,0.39-0.16
		C322.69,106.65,322.88,106.79,323.16,106.95z"/>
	<path class="st2" d="M312.86,101.48c-0.17-0.1-0.36-0.16-0.38-0.24c-0.02-0.1,0.1-0.22,0.17-0.33c0.13,0.05,0.33,0.09,0.36,0.16
		C313.04,101.16,312.93,101.29,312.86,101.48z"/>
	<path class="st2" d="M325.9,94.65c0.16-0.15,0.25-0.24,0.35-0.33c0.1,0.09,0.23,0.17,0.29,0.28c0.02,0.04-0.11,0.2-0.16,0.2
		C326.25,94.79,326.12,94.73,325.9,94.65z"/>
	<path class="st2" d="M308.38,98.48c0.38,0.18,0.76,0.36,1.13,0.54c-0.07,0.06-0.2,0.18-0.21,0.18c-0.33-0.22-0.65-0.45-0.96-0.69
		L308.38,98.48z"/>
	<path class="st2" d="M177.77,40.78c-0.18-0.15-0.28-0.24-0.39-0.32c0.12-0.08,0.22-0.18,0.35-0.22c0.05-0.02,0.24,0.1,0.23,0.15
		C177.95,40.5,177.86,40.6,177.77,40.78z"/>
	<path class="st2" d="M154.27,16.72c0.41,0.12,1.03,0.24,1.57,0.47c0.76,0.33,0.19,0.8,0.11,1.24c-0.05,0.28,0.04,0.72,0.27,0.85
		c0.25,0.14,0.78,0.07,1.1-0.06c1.05-0.4,1.46-0.97,1.01-1.66c-0.52-0.79-0.06-1.07,0.65-1.46c1.14-0.61,1.11-0.64-0.16-1.15
		c-0.18-0.07-0.3-0.22-0.45-0.34c0.23-0.11,0.51-0.35,0.68-0.3c0.87,0.22,1.73,0.48,2.55,0.81c0.19,0.08,0.26,0.48,0.24,0.72
		c-0.07,0.74-0.21,1.49-0.34,2.23c-0.04,0.23-0.03,0.51-0.18,0.68c-0.68,0.76-1.33,1.55-2.14,2.22c-1.02,0.84-2.85,0.69-3.31-0.38
		c-0.61-1.42-1.96-1.84-3.41-2.31c-0.31-0.1-0.54-0.38-0.8-0.57c0.31-0.16,0.61-0.36,0.94-0.48
		C153.07,17.05,153.57,16.93,154.27,16.72z"/>
	<path class="st2" d="M186.99,24.37c-0.15-0.79-0.03-1.44,0.76-2.07c0.47-0.38,0.6-1.07,0.78-1.64c0.1-0.31-0.08-0.67-0.02-0.99
		c0.05-0.25,0.2-0.61,0.43-0.7c0.24-0.09,0.78,0,0.92,0.16c0.6,0.73,1.18,1.19,2.28,0.49c0.15-0.1,0.83,0.11,0.98,0.32
		c0.16,0.21,0.04,0.63-0.11,0.9c-0.1,0.18-0.47,0.25-0.7,0.4c-0.93,0.61-0.85,1.16,0.21,1.58c0.27,0.11,0.52,0.26,0.78,0.4
		c-0.34,0.14-0.68,0.39-1.02,0.39c-0.44,0.01-0.88-0.18-1.32-0.28c-1.54-0.35-2.62,0.38-2.55,1.66c0.02,0.33-0.18,0.68-0.28,1.01
		c-0.32-0.27-0.7-0.51-0.94-0.82C187.02,24.97,187.05,24.65,186.99,24.37z"/>
	<path class="st2" d="M149.08,16.08c-0.21-0.58-0.35-1.19-0.63-1.75c-0.55-1.11,0.63-2.52,2.11-2.31c1.23,0.18,2.41,0.61,3.58,1
		c0.72,0.25,0.7,0.74,0.11,1.11c-0.45,0.28-0.98,0.52-1.52,0.67c-1.01,0.28-1.78,0.69-1.97,1.62c-0.01,0.05-0.02,0.1-0.05,0.13
		c-0.39,0.37-0.78,0.73-1.18,1.09c-0.18-0.42-0.36-0.84-0.53-1.27c-0.03-0.09-0.02-0.19-0.02-0.28
		C149.01,16.1,149.04,16.09,149.08,16.08z M149.85,13.13c0.21,0.15,0.34,0.31,0.44,0.3c0.2-0.03,0.39-0.15,0.58-0.23
		c-0.12-0.11-0.24-0.32-0.37-0.32C150.32,12.87,150.13,13.01,149.85,13.13z"/>
	<path class="st2" d="M167.07,8.61c0.19,0.14,0.54,0.27,0.55,0.43c0.03,0.29-0.02,0.75-0.25,0.86c-0.94,0.47-1.2,0.79,0.09,1.09
		c0.09,0.02,0.13,0.35,0.09,0.52c-0.02,0.12-0.25,0.21-0.31,0.33c-0.3,0.56-0.57,1.13-0.86,1.7c-0.56-0.32-1.16-0.61-1.68-0.98
		c-0.25-0.18-0.6-0.6-0.51-0.73c0.72-1.02,1.53-2.01,2.33-2.99C166.61,8.75,166.82,8.72,167.07,8.61z"/>
	<path class="st2" d="M212.63,14.25c-0.23,0.11-0.63,0.43-0.81,0.36c-0.7-0.27-1.34-0.66-1.98-1.03c-0.05-0.03-0.01-0.29,0.08-0.35
		C210.44,12.89,212.48,13.54,212.63,14.25z"/>
	<path class="st2" d="M197.09,11.23c-0.41-0.22-0.75-0.4-1.08-0.58c0.35-0.27,0.67-0.73,1.04-0.76c0.39-0.04,0.84,0.32,1.27,0.51
		C197.95,10.64,197.58,10.89,197.09,11.23z"/>
	<path class="st2" d="M151.67,31.18c0.07,0.01,0.25,0.02,0.26,0.05c0.01,0.13,0.04,0.33-0.05,0.39c-0.57,0.39-1.14,0.76-1.76,1.09
		c-0.15,0.08-0.47-0.06-0.71-0.09c0.08-0.21,0.08-0.53,0.25-0.61C150.29,31.68,150.98,31.45,151.67,31.18z"/>
	<path class="st2" d="M153.96,28.09c-0.27-0.33-0.64-0.63-0.75-0.99c-0.06-0.2,0.33-0.5,0.51-0.75c0.26,0.17,0.7,0.32,0.74,0.53
		c0.08,0.37-0.09,0.77-0.15,1.15C154.2,28.05,154.08,28.07,153.96,28.09z"/>
	<path class="st2" d="M207.19,13.47c0.31,0.35,0.68,0.59,0.63,0.74c-0.09,0.25-0.45,0.44-0.7,0.66c-0.2-0.17-0.58-0.36-0.55-0.51
		C206.61,14.09,206.9,13.85,207.19,13.47z"/>
	<path class="st2" d="M206.12,22.9c-0.36-0.34-0.65-0.51-0.73-0.73c-0.06-0.15,0.18-0.37,0.28-0.56c0.24,0.17,0.56,0.31,0.7,0.52
		C206.45,22.26,206.26,22.51,206.12,22.9z"/>
	<path class="st2" d="M208.87,33.73c0.24-0.11,0.61-0.36,0.68-0.31c0.24,0.16,0.45,0.41,0.52,0.66c0.04,0.14-0.22,0.34-0.35,0.51
		C209.53,34.39,209.32,34.18,208.87,33.73z"/>
	<path class="st2" d="M180.75,20.13c-0.37-0.33-0.63-0.5-0.78-0.72c-0.05-0.07,0.2-0.27,0.31-0.42c0.22,0.17,0.49,0.32,0.65,0.52
		C181,19.61,180.85,19.81,180.75,20.13z"/>
	<path class="st2" d="M203.11,22.59c-0.26-0.31-0.5-0.47-0.46-0.57c0.09-0.25,0.31-0.47,0.48-0.7c0.17,0.08,0.51,0.2,0.49,0.25
		C203.53,21.86,203.35,22.13,203.11,22.59z"/>
	<path class="st2" d="M180.49,21.14c0.26,0.04,0.36,0.06,0.45,0.07c-0.41,0.3-0.83,0.61-1.24,0.91c-0.07-0.06-0.2-0.18-0.19-0.18
		C179.85,21.66,180.2,21.37,180.49,21.14z"/>
	<path class="st2" d="M172.21,31.65c0.13-0.18,0.23-0.33,0.33-0.47c0.15,0.16,0.37,0.31,0.42,0.49c0.03,0.1-0.19,0.26-0.3,0.4
		C172.52,31.94,172.39,31.81,172.21,31.65z"/>
	<path class="st2" d="M189.5,11.35c0.19-0.09,0.36-0.22,0.44-0.19c0.12,0.04,0.24,0.21,0.23,0.31c-0.01,0.08-0.24,0.23-0.33,0.21
		C189.72,11.66,189.64,11.5,189.5,11.35z"/>
	<path class="st2" d="M190.17,25.94c0.22-0.14,0.38-0.24,0.55-0.35c0.09,0.1,0.29,0.23,0.26,0.29c-0.09,0.15-0.26,0.26-0.4,0.39
		C190.46,26.18,190.35,26.09,190.17,25.94z"/>
	<path class="st2" d="M182.39,21.59c0.39-0.1,0.59-0.19,0.8-0.19c0.12,0,0.24,0.13,0.37,0.2c-0.19,0.08-0.38,0.19-0.58,0.22
		C182.85,21.83,182.71,21.72,182.39,21.59z"/>
	<path class="st2" d="M193.19,12.94c-0.18-0.15-0.28-0.24-0.39-0.32c0.12-0.08,0.22-0.18,0.35-0.22c0.05-0.02,0.24,0.1,0.23,0.15
		C193.38,12.66,193.29,12.77,193.19,12.94z"/>
	<path class="st2" d="M269.8,58.76c-0.15-0.79-0.03-1.44,0.76-2.07c0.47-0.38,0.6-1.07,0.78-1.64c0.1-0.31-0.08-0.67-0.02-0.99
		c0.05-0.25,0.2-0.61,0.43-0.7c0.24-0.09,0.78,0,0.92,0.16c0.6,0.73,1.18,1.19,2.28,0.49c0.15-0.1,0.83,0.11,0.98,0.32
		c0.16,0.21,0.04,0.63-0.11,0.9c-0.1,0.18-0.47,0.25-0.7,0.4c-0.93,0.61-0.85,1.16,0.21,1.58c0.27,0.11,0.52,0.26,0.78,0.4
		c-0.34,0.14-0.68,0.39-1.02,0.39c-0.44,0.01-0.88-0.18-1.32-0.28c-1.54-0.35-2.62,0.38-2.55,1.66c0.02,0.33-0.18,0.68-0.28,1.01
		c-0.32-0.27-0.7-0.51-0.94-0.82C269.83,59.36,269.85,59.04,269.8,58.76z"/>
	<path class="st2" d="M295.43,48.64c-0.23,0.11-0.63,0.43-0.81,0.36c-0.7-0.27-1.34-0.66-1.98-1.03c-0.05-0.03-0.01-0.29,0.08-0.35
		C293.25,47.28,295.29,47.93,295.43,48.64z"/>
	<path class="st2" d="M279.9,45.62c-0.41-0.22-0.75-0.4-1.08-0.58c0.35-0.27,0.67-0.73,1.04-0.76c0.39-0.04,0.84,0.32,1.27,0.51
		C280.76,45.03,280.39,45.29,279.9,45.62z"/>
	<path class="st2" d="M289.99,47.86c0.31,0.35,0.68,0.59,0.63,0.74c-0.09,0.25-0.45,0.44-0.7,0.66c-0.2-0.17-0.58-0.36-0.55-0.51
		C289.42,48.48,289.71,48.24,289.99,47.86z"/>
	<path class="st2" d="M288.93,57.29c-0.36-0.34-0.65-0.51-0.73-0.73c-0.06-0.15,0.18-0.37,0.28-0.56c0.24,0.17,0.56,0.31,0.7,0.52
		C289.26,56.65,289.07,56.9,288.93,57.29z"/>
	<path class="st2" d="M263.56,54.52c-0.37-0.33-0.63-0.5-0.78-0.72c-0.05-0.07,0.2-0.27,0.31-0.42c0.22,0.17,0.49,0.32,0.65,0.52
		C263.81,54,263.66,54.2,263.56,54.52z"/>
	<path class="st2" d="M285.92,56.98c-0.26-0.31-0.5-0.47-0.46-0.57c0.09-0.25,0.31-0.47,0.48-0.7c0.17,0.08,0.51,0.2,0.49,0.25
		C286.34,56.25,286.16,56.52,285.92,56.98z"/>
	<path class="st2" d="M263.3,55.54c0.26,0.04,0.36,0.06,0.45,0.07c-0.41,0.3-0.83,0.61-1.24,0.91c-0.07-0.06-0.2-0.18-0.19-0.18
		C262.66,56.05,263.01,55.76,263.3,55.54z"/>
	<path class="st2" d="M272.31,45.74c0.19-0.09,0.36-0.22,0.44-0.19c0.12,0.04,0.24,0.21,0.23,0.31c-0.01,0.08-0.24,0.23-0.33,0.21
		C272.53,46.05,272.45,45.89,272.31,45.74z"/>
	<path class="st2" d="M272.98,60.34c0.22-0.14,0.38-0.24,0.55-0.35c0.09,0.1,0.29,0.23,0.26,0.29c-0.09,0.15-0.26,0.26-0.4,0.39
		C273.27,60.57,273.16,60.49,272.98,60.34z"/>
	<path class="st2" d="M265.2,55.98c0.39-0.1,0.59-0.19,0.8-0.19c0.12,0,0.24,0.13,0.37,0.2c-0.19,0.08-0.38,0.19-0.58,0.22
		C265.66,56.22,265.52,56.11,265.2,55.98z"/>
	<path class="st2" d="M276,47.33c-0.18-0.15-0.28-0.24-0.39-0.32c0.12-0.08,0.22-0.18,0.35-0.22c0.05-0.02,0.24,0.1,0.23,0.15
		C276.19,47.05,276.1,47.16,276,47.33z"/>
	<path class="st2" d="M247.28,152.76c0.36-0.2,0.56-0.34,0.8-0.42c0.09-0.03,0.24,0.08,0.37,0.13c-0.19,0.15-0.37,0.32-0.58,0.43
		C247.78,152.94,247.6,152.84,247.28,152.76z"/>
	<path class="st2" d="M253.27,161.2c-0.15-0.79-0.03-1.44,0.76-2.07c0.47-0.38,0.6-1.07,0.78-1.64c0.1-0.31-0.08-0.67-0.02-0.99
		c0.05-0.25,0.2-0.61,0.43-0.7c0.24-0.09,0.78,0,0.92,0.16c0.6,0.73,1.18,1.19,2.28,0.49c0.15-0.1,0.83,0.11,0.98,0.32
		c0.16,0.21,0.04,0.63-0.11,0.9c-0.1,0.18-0.47,0.25-0.7,0.4c-0.93,0.61-0.85,1.16,0.21,1.58c0.27,0.11,0.52,0.26,0.78,0.4
		c-0.34,0.14-0.68,0.39-1.02,0.39c-0.44,0.01-0.88-0.18-1.32-0.28c-1.54-0.35-2.62,0.38-2.55,1.66c0.02,0.33-0.18,0.68-0.28,1.01
		c-0.32-0.27-0.7-0.51-0.94-0.82C253.3,161.81,253.32,161.48,253.27,161.2z"/>
	<path class="st2" d="M263.37,148.07c-0.41-0.22-0.75-0.4-1.08-0.58c0.35-0.27,0.67-0.73,1.04-0.76c0.39-0.04,0.84,0.32,1.27,0.51
		C264.23,147.48,263.86,147.73,263.37,148.07z"/>
	<path class="st2" d="M247.03,156.97c-0.37-0.33-0.63-0.5-0.78-0.72c-0.05-0.07,0.2-0.27,0.31-0.42c0.22,0.17,0.49,0.32,0.65,0.52
		C247.28,156.44,247.13,156.64,247.03,156.97z"/>
	<path class="st2" d="M269.39,159.43c-0.26-0.31-0.5-0.47-0.46-0.57c0.09-0.25,0.31-0.47,0.48-0.7c0.17,0.08,0.51,0.2,0.49,0.25
		C269.81,158.69,269.63,158.97,269.39,159.43z"/>
	<path class="st2" d="M246.77,157.98c0.26,0.04,0.36,0.06,0.45,0.07c-0.41,0.3-0.83,0.61-1.24,0.91c-0.07-0.06-0.2-0.18-0.19-0.18
		C246.13,158.49,246.48,158.21,246.77,157.98z"/>
	<path class="st2" d="M255.78,148.19c0.19-0.09,0.36-0.22,0.44-0.19c0.12,0.04,0.24,0.21,0.23,0.31c-0.01,0.08-0.24,0.23-0.33,0.21
		C256,148.49,255.92,148.33,255.78,148.19z"/>
	<path class="st2" d="M248.67,158.42c0.39-0.1,0.59-0.19,0.8-0.19c0.12,0,0.24,0.13,0.37,0.2c-0.19,0.08-0.38,0.19-0.58,0.22
		C249.13,158.67,248.99,158.55,248.67,158.42z"/>
	<path class="st2" d="M259.47,149.77c-0.18-0.15-0.28-0.24-0.39-0.32c0.12-0.08,0.22-0.18,0.35-0.22c0.05-0.02,0.24,0.1,0.23,0.15
		C259.66,149.5,259.57,149.6,259.47,149.77z"/>
	<path class="st2" d="M108.94,44.52c-0.17-0.12-0.31-0.19-0.3-0.22c0.08-0.21,0.2-0.41,0.3-0.62c0.1,0.06,0.28,0.14,0.27,0.18
		C109.17,44.07,109.06,44.27,108.94,44.52z"/>
	<path class="st2" d="M171.69,68.68c0.21-0.12,0.34-0.25,0.46-0.24c0.1,0,0.2,0.16,0.26,0.26c0.01,0.02-0.16,0.16-0.23,0.15
		C172.05,68.84,171.92,68.76,171.69,68.68z"/>
	<path class="st2" d="M239.64,102.24c0.06-0.08,0.1-0.19,0.18-0.22c0.28-0.11,0.57-0.2,0.86-0.29c0.02-0.01,0.07,0.06,0.1,0.09
		c-0.26,0.13-0.51,0.27-0.78,0.39c-0.09,0.04-0.21,0.04-0.32,0.06L239.64,102.24z"/>
	<path class="st2" d="M193.97,171.86c0.03-0.39,0.11-0.81-0.7-0.6c-0.22,0.06-0.48,0-0.72-0.01c0.25-0.29,0.43-0.72,0.76-0.82
		c0.38-0.12,0.98,0.19,1.34,0.05c1.68-0.66,3.2,0.22,4.81,0.21c0.76,0,1.31-0.06,1.83-0.54c0.65-0.6,1.39-1.15,2.11-1.7
		c0.52-0.4,0.95-0.21,1.28,0.2c0.36,0.45,0.04,0.74-0.46,0.86c-0.98,0.23-1.5,0.76-1.95,1.49c-0.59,0.97-1.31,1.14-2.7,0.81
		c-0.97-0.23-1.86-0.3-2.8,0.2c-0.56,0.3-1.29,0.39-1.97,0.52C194.17,172.64,193.72,172.52,193.97,171.86z"/>
	<path class="st2" d="M160.15,158.05c-0.16-0.9-0.33-1.79-0.46-2.69c-0.01-0.1,0.32-0.36,0.38-0.34c0.29,0.1,0.8,0.34,0.77,0.41
		c-0.25,0.64,0.3,0.95,0.67,1.35c1.09,1.21,1.41,1.25,2.91,0.42c0.23-0.13,0.55-0.15,0.83-0.23c-0.14,0.19-0.24,0.41-0.41,0.58
		c-0.42,0.39-0.87,0.76-1.33,1.12c-0.83,0.65-2.53,0.68-3.28,0.04c-0.19-0.16-0.27-0.4-0.4-0.6
		C159.93,158.09,160.04,158.07,160.15,158.05z"/>
	<path class="st2" d="M185.43,175.99c-0.2-0.06-0.66-0.09-0.75-0.26c-0.1-0.18,0.07-0.55,0.27-0.72c0.4-0.33,0.86-0.66,1.37-0.85
		c1.62-0.59,3.28-1.12,4.93-1.66c0.11-0.04,0.29,0.01,0.41,0.06c0.03,0.01,0,0.18-0.05,0.26c-0.08,0.12-0.17,0.26-0.31,0.34
		c-1.47,0.82-2.94,1.64-4.43,2.43C186.49,175.78,186,175.83,185.43,175.99z"/>
	<path class="st2" d="M163.7,176.28c0.3-0.14,0.63-0.39,0.78-0.34c1.55,0.58,3.08,1.22,4.06,2.42c0.14,0.18,0.1,0.67-0.05,0.75
		c-0.29,0.15-0.74,0.17-1.1,0.12c-0.24-0.04-0.45-0.27-0.63-0.44c-0.7-0.66-1.22-1.46-2.36-1.74
		C164.14,176.99,163.99,176.63,163.7,176.28z"/>
	<path class="st2" d="M213.57,153.99c-0.01-0.09-0.07-0.2-0.03-0.28c0.13-0.32,0.29-0.63,0.44-0.95c0.2,0.25,0.54,0.49,0.57,0.75
		c0.09,0.76,0.48,1.2,1.42,1.38c0.69,0.14,0.68,0.46,0.06,0.74c-0.51,0.23-1.02,0.47-1.57,0.62c-0.36,0.1-0.78,0.07-1.17,0.1
		c0.16-0.24,0.43-0.47,0.45-0.72c0.05-0.55-0.03-1.1-0.06-1.65C213.65,153.98,213.61,153.99,213.57,153.99z"/>
	<path class="st2" d="M213.21,166.44c0.5-0.03,0.99-0.06,1.49-0.08c-0.01,0.12,0.04,0.33-0.03,0.36c-0.61,0.25-1.22,0.5-1.86,0.69
		c-0.15,0.04-0.41-0.14-0.6-0.24c-0.29-0.16-0.55-0.34-0.83-0.51c-1.58-0.98-1.59-0.98-0.62-2.27c0.16-0.22,0.45-0.37,0.68-0.56
		c0.02,0.25,0.12,0.51,0.04,0.73c-0.3,0.73-0.12,1.32,0.63,1.75c0.3,0.17,0.7,0.22,1.06,0.33
		C213.18,166.57,213.2,166.51,213.21,166.44z"/>
	<path class="st2" d="M217.04,159.56c0.27,0.06,0.53,0.11,0.78,0.17c-0.11,0.16-0.21,0.33-0.34,0.48c-0.34,0.36-0.56,0.85-1.35,0.63
		c-1.13-0.31-1.9,0.06-2.35,0.96c-0.07,0.15-0.31,0.24-0.47,0.35c-0.08-0.2-0.31-0.48-0.22-0.59c0.38-0.46,0.76-1,1.32-1.26
		C215.19,159.95,216.14,159.81,217.04,159.56z"/>
	<path class="st2" d="M215.21,148.61c-0.07-0.56-0.28-1.14-0.16-1.67c0.07-0.32,0.62-0.71,1.03-0.79c0.31-0.06,0.94,0.24,1.06,0.5
		c0.12,0.25-0.15,0.71-0.42,0.96c-0.41,0.39-0.97,0.68-1.46,1.01L215.21,148.61z"/>
	<path class="st2" d="M191.92,174.34c0.76,0.14,1.34,0.25,1.92,0.36c-0.52,0.18-1.05,0.34-1.55,0.56c-0.65,0.28-1.26,0.61-1.92,0.88
		c-0.2,0.08-0.49,0.01-0.74,0.01c0.04-0.17,0.01-0.42,0.13-0.51C190.47,175.18,191.21,174.76,191.92,174.34z"/>
	<path class="st2" d="M160.97,181.34c0.92-0.06,1.63-0.08,1.44,0.82c-0.02,0.09-0.02,0.19,0.01,0.28c0.11,0.33,0.25,0.65,0.37,0.98
		c-0.41-0.17-0.84-0.33-1.23-0.53c-0.29-0.15-0.57-0.33-0.79-0.54c-0.23-0.22-0.4-0.5-0.59-0.75
		C160.5,181.51,160.81,181.4,160.97,181.34z"/>
	<path class="st2" d="M161.2,152.46c0.14-0.1,0.28-0.25,0.47-0.33c0.69-0.29,1.66-0.26,1.81-1.15c0.01-0.05,0.41-0.14,0.56-0.09
		c0.18,0.07,0.41,0.3,0.38,0.41c-0.16,0.55-0.4,1.08-0.63,1.62c-0.03,0.08-0.17,0.19-0.23,0.18c-0.75-0.13-1.5-0.29-2.25-0.44
		C161.27,152.64,161.26,152.57,161.2,152.46z"/>
	<path class="st2" d="M192.41,161.18c0.07,0.48,0.14,0.63,0.1,0.75c-0.13,0.34-0.24,0.72-0.51,0.98c-0.11,0.1-0.84,0-0.88-0.1
		c-0.1-0.33-0.03-0.7,0.01-1.06c0.02-0.14,0.11-0.27,0.19-0.4c0.2-0.32,0.41-0.63,0.61-0.95
		C192.15,160.76,192.37,161.11,192.41,161.18z"/>
	<path class="st2" d="M157.72,177.15c0.55,0.56,0.95,0.89,1.22,1.29c0.06,0.09-0.29,0.41-0.51,0.58c-0.65,0.52-1.32,1.03-2.01,1.53
		c-0.16,0.11-0.39,0.16-0.59,0.24c0.03-0.2-0.03-0.46,0.1-0.6c0.33-0.38,0.7-0.77,1.13-1.07c0.53-0.37,0.95-0.7,0.53-1.3
		C157.53,177.72,157.64,177.54,157.72,177.15z"/>
	<path class="st2" d="M160.95,148.87c0.11,0.21,0.43,0.6,0.33,0.69c-0.52,0.51-1.14,0.95-1.75,1.39c-0.01,0.01-0.51-0.37-0.48-0.4
		c0.48-0.55,1-1.08,1.52-1.62C160.59,148.91,160.67,148.91,160.95,148.87z"/>
	<path class="st2" d="M167.47,170.4c-0.2-0.16-0.31-0.29-0.45-0.35c-0.61-0.23-1.23-0.44-1.84-0.67c-0.24-0.09-0.46-0.21-0.69-0.31
		c0.23-0.12,0.45-0.26,0.7-0.36c1.25-0.51,2.52,0.14,2.5,1.28C167.68,170.11,167.57,170.22,167.47,170.4z"/>
	<path class="st2" d="M224.56,184.05c0.34,0.35,0.69,0.56,0.74,0.81c0.13,0.64-0.48,0.82-1.08,0.8c-0.4-0.01-0.79-0.22-1.19-0.34
		C223.49,184.94,223.95,184.56,224.56,184.05z"/>
	<path class="st2" d="M163.69,181.96c0.7-0.51,1.05-0.84,1.48-1.03c0.17-0.08,0.54,0.15,0.83,0.24c-0.29,0.35-0.51,0.76-0.89,1.03
		C164.95,182.3,164.46,182.1,163.69,181.96z"/>
	<path class="st2" d="M200.3,185.04c0.79-0.41,1.29-0.78,1.86-0.9c0.24-0.05,0.64,0.4,0.96,0.63c-0.29,0.09-0.58,0.19-0.86,0.28
		c-0.37,0.12-0.73,0.27-1.11,0.34C201.01,185.41,200.82,185.26,200.3,185.04z"/>
	<path class="st2" d="M205.8,156.34c0.66-0.37,1.1-0.63,1.56-0.85c0.05-0.02,0.38,0.18,0.38,0.28c0.02,0.45,0.13,1.02-0.67,1.07
		C206.76,156.87,206.42,156.6,205.8,156.34z"/>
	<path class="st2" d="M159.05,185.52c0.1-0.31,0.11-0.69,0.34-0.91c0.19-0.19,0.67-0.29,0.97-0.25c0.24,0.04,0.59,0.37,0.57,0.55
		c-0.02,0.19-0.38,0.44-0.66,0.52c-0.36,0.11-0.78,0.09-1.17,0.13L159.05,185.52z"/>
	<path class="st2" d="M176.4,183.42c-0.18-0.21-0.34-0.31-0.34-0.41c0-0.23-0.01-0.51,0.15-0.67c0.29-0.3,0.69-0.54,1.04-0.8
		c-0.07,0.33-0.1,0.68-0.24,0.99C176.88,182.81,176.64,183.07,176.4,183.42z"/>
	<path class="st2" d="M206.54,162.75c0.35-0.33,0.65-0.69,0.74-0.66c0.33,0.11,0.66,0.32,0.83,0.57c0.06,0.09-0.34,0.56-0.52,0.56
		C207.28,163.2,206.99,162.96,206.54,162.75z"/>
	<path class="st2" d="M223.84,168.7c0.31-0.29,0.49-0.53,0.56-0.51c0.44,0.13,0.86,0.32,1.28,0.49c-0.22,0.17-0.46,0.5-0.65,0.49
		C224.67,169.14,224.33,168.91,223.84,168.7z"/>
	<path class="st2" d="M163.99,166.02c0.31,0.2,0.59,0.37,0.86,0.54c-0.19,0.15-0.43,0.44-0.56,0.41c-0.38-0.09-0.71-0.3-1.06-0.47
		C163.44,166.37,163.65,166.23,163.99,166.02z"/>
	<path class="st2" d="M176.66,175.39c0.33,0.05,0.53,0.08,0.53,0.08c-0.06,0.35-0.07,0.73-0.25,1.04c-0.16,0.27-0.51,0.47-0.77,0.7
		c-0.07-0.06-0.21-0.14-0.19-0.19C176.19,176.47,176.43,175.92,176.66,175.39z"/>
	<path class="st2" d="M208.54,185.19c0.2-0.33,0.34-0.56,0.48-0.79c0.16,0.28,0.4,0.54,0.46,0.83c0.05,0.25-0.1,0.52-0.16,0.78
		C209.07,185.75,208.81,185.48,208.54,185.19z"/>
	<path class="st2" d="M194.8,176.47c0.63-0.57,1.09-0.98,1.54-1.39c0.1,0.08,0.31,0.22,0.29,0.24c-0.33,0.43-0.68,0.86-1.07,1.26
		C195.51,176.63,195.23,176.53,194.8,176.47z"/>
	<path class="st2" d="M210.6,170.01c0.32,0.14,0.59,0.26,0.85,0.38c-0.24,0.14-0.47,0.39-0.72,0.4c-0.25,0.01-0.51-0.2-0.77-0.32
		C210.16,170.33,210.35,170.19,210.6,170.01z"/>
	<path class="st2" d="M207.79,168.8c0.35-0.29,0.72-0.61,1.1-0.92c0.04-0.03,0.19,0.05,0.29,0.07c-0.11,0.24-0.17,0.52-0.35,0.72
		c-0.19,0.2-0.5,0.31-0.76,0.46C208.01,169.07,207.95,168.99,207.79,168.8z"/>
	<path class="st2" d="M197.2,164.67c0.51-0.36,0.86-0.62,1.24-0.85c0.02-0.02,0.32,0.19,0.3,0.21c-0.24,0.33-0.5,0.66-0.79,0.96
		C197.93,165.01,197.62,164.85,197.2,164.67z"/>
	<path class="st2" d="M175.43,168.24c0.28-0.2,0.52-0.47,0.85-0.59c0.26-0.1,0.61-0.02,0.92-0.02c-0.2,0.19-0.35,0.44-0.6,0.55
		c-0.31,0.14-0.7,0.16-1.05,0.24C175.5,168.36,175.47,168.3,175.43,168.24z"/>
	<path class="st2" d="M209.56,160.46c0.2,0.24,0.42,0.44,0.39,0.47c-0.21,0.19-0.44,0.39-0.72,0.5c-0.1,0.04-0.33-0.13-0.5-0.21
		C208.97,161,209.21,160.78,209.56,160.46z"/>
	<path class="st2" d="M222.38,154.36c-0.48-0.34-0.63-0.45-0.78-0.56c0.15-0.12,0.29-0.31,0.45-0.33c0.16-0.02,0.45,0.12,0.49,0.25
		C222.6,153.87,222.46,154.07,222.38,154.36z"/>
	<path class="st2" d="M157.08,152.53c-0.05,0.4-0.07,0.59-0.1,0.77c-0.02,0.09-0.06,0.17-0.09,0.26c-0.09-0.09-0.2-0.17-0.25-0.28
		c-0.09-0.17-0.14-0.35-0.19-0.53c-0.07-0.25-0.12-0.51-0.18-0.77c0.11-0.01,0.27-0.06,0.31-0.02
		C156.8,152.19,157,152.43,157.08,152.53z"/>
	<path class="st2" d="M200.83,152.14c0.24,0.16,0.39,0.27,0.55,0.38c-0.15,0.12-0.29,0.32-0.45,0.34c-0.16,0.02-0.35-0.15-0.53-0.23
		C200.52,152.49,200.64,152.35,200.83,152.14z"/>
	<path class="st2" d="M182.52,145.94c-0.23-0.19-0.45-0.31-0.43-0.36c0.1-0.24,0.27-0.46,0.42-0.68c0.12,0.08,0.35,0.17,0.34,0.23
		C182.79,145.37,182.66,145.61,182.52,145.94z"/>
	<path class="st2" d="M201.12,173.95c0.36-0.15,0.58-0.31,0.82-0.34c0.16-0.02,0.36,0.13,0.54,0.2c-0.27,0.14-0.53,0.3-0.82,0.4
		C201.57,174.25,201.4,174.1,201.12,173.95z"/>
	<path class="st2" d="M159.11,185.56c-0.07,0.18-0.07,0.42-0.22,0.52c-0.33,0.22-0.74,0.37-1.12,0.54
		c-0.02,0.01-0.18-0.18-0.17-0.19c0.27-0.23,0.54-0.46,0.84-0.66c0.17-0.11,0.41-0.17,0.62-0.25L159.11,185.56z"/>
	<path class="st2" d="M214.96,181.53c0.45,0.29,0.74,0.46,0.99,0.66c0.02,0.01-0.28,0.37-0.33,0.36c-0.3-0.09-0.59-0.22-0.82-0.39
		C214.73,182.1,214.87,181.87,214.96,181.53z"/>
	<path class="st2" d="M214.06,185.42c0.29-0.21,0.53-0.4,0.79-0.55c0.02-0.01,0.24,0.2,0.36,0.3c-0.24,0.19-0.47,0.38-0.73,0.54
		C214.45,185.73,214.26,185.57,214.06,185.42z"/>
	<path class="st2" d="M185.95,164.92c0.12-0.2,0.22-0.35,0.31-0.5c0.15,0.1,0.41,0.21,0.41,0.31c-0.01,0.19-0.17,0.38-0.26,0.57
		C186.27,165.18,186.13,165.07,185.95,164.92z"/>
	<path class="st2" d="M217.15,164.9c0.08-0.18,0.14-0.29,0.19-0.41c0.22,0.25,0.45,0.5,0.63,0.77c0.02,0.03-0.17,0.17-0.27,0.26
		C217.52,165.31,217.33,165.1,217.15,164.9z"/>
	<path class="st2" d="M218.92,144.8c-0.83,0.13-1.67,0.26-2.5,0.38c-0.08,0.01-0.18-0.1-0.26-0.15c0.11-0.07,0.21-0.2,0.32-0.2
		c0.8-0.03,1.6-0.04,2.4-0.06L218.92,144.8z"/>
	<path class="st2" d="M196.23,143.39c0.4-0.11,0.58-0.2,0.75-0.19c0.12,0.01,0.23,0.16,0.34,0.25c-0.14,0.11-0.28,0.31-0.42,0.31
		C196.75,143.76,196.58,143.59,196.23,143.39z"/>
	<path class="st2" d="M155.73,168.77c-0.3,0.16-0.48,0.32-0.68,0.34c-0.11,0.01-0.34-0.22-0.35-0.35c-0.01-0.14,0.18-0.3,0.28-0.45
		C155.14,168.41,155.3,168.51,155.73,168.77z"/>
	<path class="st2" d="M210.86,179.27c0.28-0.22,0.48-0.36,0.68-0.51c0.07,0.1,0.24,0.24,0.2,0.3c-0.1,0.16-0.27,0.3-0.44,0.41
		C211.26,179.5,211.08,179.38,210.86,179.27z"/>
	<path class="st2" d="M148.58,184.94c0.18,0.12,0.29,0.19,0.4,0.27c-0.14,0.12-0.27,0.27-0.44,0.35c-0.06,0.03-0.23-0.11-0.35-0.17
		C148.3,185.25,148.42,185.12,148.58,184.94z"/>
	<path class="st2" d="M215.27,148.64c-0.02,0.14,0.02,0.3-0.06,0.41c-0.16,0.21-0.38,0.39-0.58,0.58c-0.01,0.01-0.14-0.05-0.14-0.05
		c0.1-0.24,0.19-0.48,0.33-0.7c0.07-0.11,0.26-0.18,0.39-0.26L215.27,148.64z"/>
	<path class="st2" d="M219.95,151.13c0.25-0.19,0.37-0.33,0.54-0.39c0.1-0.03,0.27,0.07,0.4,0.11c-0.12,0.13-0.21,0.3-0.37,0.39
		C220.44,151.28,220.25,151.19,219.95,151.13z"/>
	<path class="st2" d="M218.88,144.77c0.06-0.08,0.1-0.19,0.18-0.22c0.28-0.11,0.57-0.2,0.86-0.29c0.02-0.01,0.07,0.06,0.1,0.09
		c-0.26,0.13-0.51,0.27-0.78,0.39c-0.09,0.04-0.21,0.04-0.32,0.06L218.88,144.77z"/>
	<path class="st2" d="M234.99,50.95c0.07-0.11,0.1-0.24,0.17-0.25c0.15-0.03,0.31,0,0.47,0c-0.05,0.1-0.08,0.26-0.17,0.28
		C235.33,51.03,235.16,50.97,234.99,50.95z"/>
	<path class="st2" d="M103.1,121.24c0.19-0.12,0.29-0.22,0.42-0.26c0.07-0.02,0.27,0.08,0.26,0.12c-0.02,0.11-0.1,0.22-0.16,0.33
		C103.48,121.37,103.34,121.32,103.1,121.24z"/>
	<path class="st2" d="M63.81,112.09c-0.28-0.21-0.73-0.4-0.79-0.65c-0.08-0.39,0.07-0.84,0.2-1.24c0.02-0.08,0.38-0.08,0.58-0.13
		c0.58-0.16,1.2-0.25,1.72-0.5c0.76-0.37,1.02-0.77-0.07-1.16c-0.66-0.24-0.55-1.05,0.1-1.31c0.09-0.04,0.31-0.04,0.31-0.04
		c0.23,0.91,1.46,0.77,2.04,1.31c0.43,0.41,0.2,0.64-0.24,0.91c-1.11,0.67-2.22,1.36-3.29,2.07c-0.25,0.17-0.36,0.47-0.54,0.7
		L63.81,112.09z"/>
	<path class="st2" d="M63.83,112.06c0.93-0.23,1.86-0.5,2.8-0.67c0.39-0.07,0.85,0.03,1.24,0.12c0.07,0.02,0.1,0.54-0.05,0.63
		c-0.32,0.2-0.78,0.41-1.15,0.38c-0.97-0.08-1.92-0.28-2.87-0.43L63.83,112.06z"/>
	<path class="st2" d="M65.51,87.88c0.27-0.49,0.44-0.81,0.62-1.13c0.43,0.39,0.87,0.77,1.24,1.19c0.03,0.03-0.44,0.51-0.58,0.48
		C66.38,88.34,66.01,88.11,65.51,87.88z"/>
	<path class="st2" d="M69.44,107.86c-0.3-0.09-0.5-0.1-0.59-0.19c-0.52-0.48-1.03-0.97-1.5-1.49c-0.1-0.11-0.02-0.34-0.02-0.51
		c0.2,0.02,0.49-0.01,0.6,0.08c0.54,0.46,1.07,0.94,1.54,1.46C69.57,107.33,69.46,107.6,69.44,107.86z"/>
	<path class="st2" d="M68.82,114.38c0.37-0.17,0.73-0.37,1.13-0.49c0.34-0.11,0.73-0.15,1.1-0.16c0.06,0,0.24,0.4,0.18,0.45
		c-0.3,0.24-0.65,0.53-1.03,0.6c-0.42,0.08-0.89-0.05-1.34-0.1C68.84,114.58,68.83,114.48,68.82,114.38z"/>
	<path class="st2" d="M67.97,116.2c0.4,0.06,0.86,0.07,1.25,0.2c0.17,0.06,0.22,0.37,0.32,0.57c-0.2,0.02-0.4,0.07-0.59,0.05
		c-0.33-0.04-0.66-0.11-0.98-0.2c-0.28-0.08-0.54-0.19-0.82-0.28C67.4,116.43,67.64,116.33,67.97,116.2z"/>
	<path class="st2" d="M70.24,103.66c0.43-0.23,0.71-0.41,1.03-0.52c0.07-0.02,0.27,0.21,0.41,0.33c-0.27,0.21-0.53,0.43-0.83,0.61
		C70.82,104.1,70.57,103.89,70.24,103.66z"/>
	<path class="st2" d="M66.62,101.71c0.22,0.03,0.52,0,0.64,0.11c0.28,0.24,0.49,0.54,0.68,0.83c0.03,0.05-0.17,0.2-0.27,0.3
		c-0.31-0.22-0.65-0.42-0.92-0.67c-0.14-0.12-0.15-0.34-0.22-0.51L66.62,101.71z"/>
	<path class="st2" d="M70.62,77.14c-0.31-0.17-0.56-0.3-0.81-0.43c0.17-0.1,0.37-0.31,0.51-0.29c0.28,0.04,0.53,0.21,0.8,0.32
		C70.97,76.85,70.83,76.97,70.62,77.14z"/>
	<path class="st2" d="M70.89,92.1c0.24-0.19,0.4-0.37,0.62-0.48c0.05-0.03,0.27,0.17,0.41,0.27c-0.18,0.16-0.35,0.34-0.55,0.48
		C71.33,92.39,71.12,92.24,70.89,92.1z"/>
	<path class="st2" d="M66.54,101.77c-0.22-0.2-0.5-0.38-0.65-0.61c-0.09-0.13,0.02-0.35,0.03-0.53c0.16,0.13,0.38,0.25,0.48,0.41
		c0.12,0.2,0.15,0.45,0.22,0.68L66.54,101.77z"/>
	<path class="st2" d="M74.01,116.05c0.19-0.12,0.29-0.22,0.42-0.26c0.07-0.02,0.27,0.08,0.26,0.12c-0.02,0.11-0.1,0.22-0.16,0.33
		C74.39,116.19,74.25,116.13,74.01,116.05z"/>
	<path class="st2" d="M269.75,89.32c0.25-0.13,0.37-0.25,0.49-0.24c0.11,0,0.22,0.13,0.33,0.2c-0.09,0.05-0.17,0.15-0.26,0.15
		C270.18,89.43,270.04,89.38,269.75,89.32z"/>
	<path class="st2" d="M129.6,135.83c0.22-0.12,0.34-0.19,0.47-0.27c0.08,0.1,0.18,0.19,0.22,0.3c0.01,0.03-0.16,0.17-0.23,0.16
		C129.92,136.01,129.81,135.93,129.6,135.83z"/>
	<path class="st2" d="M130.38,87.73c-0.13-0.19-0.26-0.38-0.37-0.58c-0.01-0.01,0.19-0.1,0.29-0.15c0.14,0.19,0.27,0.38,0.4,0.57
		C130.69,87.58,130.54,87.65,130.38,87.73z"/>
	<path class="st2" d="M87.78,97.09c-0.11-0.02-0.31-0.04-0.31-0.05c0.01-1.01-1.42-1.3-1.44-2.1c-0.02-0.63,0.61-1.31,1.08-1.89
		c0.13-0.15,0.71,0.01,1.09,0.03c-0.06,0.24-0.04,0.53-0.18,0.71c-0.23,0.29-0.56,0.51-0.85,0.76c0.42,0.38,0.82,0.79,1.28,1.11
		c0.18,0.13,0.53,0.03,0.79,0.09c0.19,0.04,0.35,0.18,0.52,0.27c-0.11,0.16-0.17,0.4-0.33,0.46C88.9,96.73,88.34,96.9,87.78,97.09z"
		/>
	<path class="st2" d="M95.45,75.84c-0.17-0.96,0.64-1.97,1.48-1.94c0.29,0.01,0.83,0.43,0.83,0.65c-0.02,0.78-0.18,1.57-0.38,2.34
		c-0.06,0.24-0.38,0.56-0.61,0.59c-0.23,0.03-0.59-0.24-0.74-0.46C95.74,76.6,95.57,76.12,95.45,75.84z"/>
	<path class="st2" d="M93.52,69.52c-0.09-0.54-0.22-1.08-0.27-1.62c-0.05-0.56,0.18-1.01,0.87-1.01c0.69,0,0.7,0.52,0.72,0.97
		c0.01,0.25,0.05,0.54-0.07,0.73c-0.54,0.88-0.58,1.77-0.19,2.72c0.06,0.14-0.09,0.35-0.15,0.53c-0.19-0.13-0.5-0.23-0.55-0.4
		c-0.2-0.62-0.31-1.26-0.45-1.9C93.46,69.53,93.49,69.53,93.52,69.52z"/>
	<path class="st2" d="M85.91,89.65c0.03,0.2,0.12,0.4,0.09,0.6c-0.04,0.33-0.11,0.91-0.23,0.92c-0.39,0.04-0.88-0.04-1.19-0.25
		c-0.21-0.14-0.24-0.57-0.27-0.88c-0.01-0.18,0.13-0.38,0.22-0.56c0.24-0.44,0.49-0.88,0.73-1.32c0.26,0.48,0.52,0.95,0.78,1.43
		C86,89.62,85.96,89.63,85.91,89.65z"/>
	<path class="st2" d="M75.54,90.76c-0.16,0.11-0.41,0.41-0.68,0.43c-1.13,0.06-2.35-0.46-2.2-0.87c0.13-0.35,0.56-0.73,0.94-0.83
		C74.33,89.31,75.5,90.04,75.54,90.76z"/>
	<path class="st2" d="M74.64,95.25c-0.09-0.53-0.15-0.72-0.15-0.92c0.01-0.23,0.08-0.46,0.12-0.69c0.23,0.17,0.52,0.29,0.68,0.51
		c0.3,0.4,0.53,0.85,0.77,1.28c0.14,0.25,0.41,0.61,0.32,0.77c-0.15,0.27-0.54,0.57-0.84,0.57c-0.23,0-0.55-0.41-0.69-0.69
		C74.69,95.73,74.66,95.31,74.64,95.25z"/>
	<path class="st2" d="M96.09,67.37c-0.19-1.21,0.44-1.79,1.33-1.67c0.05,0.01,0.15,0,0.15,0.01c0.03,0.63,0.12,1.27,0.05,1.89
		c-0.03,0.27-0.38,0.51-0.59,0.77C96.63,67.94,96.24,67.52,96.09,67.37z"/>
	<path class="st2" d="M90.64,66.22c-0.26-0.41-0.62-0.77-0.73-1.19c-0.1-0.38-0.03-0.88,0.18-1.21c0.15-0.25,0.63-0.36,0.99-0.44
		c0.12-0.03,0.47,0.26,0.45,0.34c-0.2,0.77-0.45,1.53-0.69,2.29C90.82,66.08,90.73,66.13,90.64,66.22z"/>
	<path class="st2" d="M102.2,93.29c-0.57-0.22-0.94-0.37-1.31-0.51c0.44-0.38,0.87-0.77,1.34-1.11c0.04-0.03,0.6,0.37,0.57,0.5
		C102.71,92.53,102.44,92.86,102.2,93.29z"/>
	<path class="st2" d="M81.92,72c-0.45-0.77-0.95-1.53-1.31-2.33c-0.12-0.27,0.13-0.67,0.21-1.01c0.18,0.29,0.44,0.55,0.53,0.86
		c0.24,0.81,0.4,1.64,0.6,2.46L81.92,72z"/>
	<path class="st2" d="M101.37,73.58c-0.45-0.41-0.77-0.7-1.1-1c0.17-0.15,0.43-0.46,0.48-0.43c0.36,0.19,0.71,0.43,0.98,0.72
		C101.8,72.93,101.56,73.23,101.37,73.58z"/>
	<path class="st2" d="M77.59,89.02c0.31-0.34,0.51-0.66,0.58-0.64c0.37,0.13,0.71,0.35,1.05,0.54c-0.13,0.18-0.28,0.53-0.38,0.51
		C78.48,89.38,78.13,89.21,77.59,89.02z"/>
	<path class="st2" d="M84.81,72.06c0.17-0.24,0.3-0.41,0.42-0.59c0.2,0.21,0.48,0.39,0.56,0.63c0.06,0.16-0.17,0.4-0.27,0.6
		C85.31,72.51,85.09,72.31,84.81,72.06z"/>
	<path class="st2" d="M83.4,94.98c-0.22-0.05-0.38-0.05-0.4-0.09c-0.04-0.13-0.08-0.34-0.01-0.39c0.48-0.36,0.99-0.68,1.5-1
		c0.02-0.01,0.14,0.1,0.21,0.15C84.26,94.11,83.81,94.56,83.4,94.98z"/>
	<path class="st2" d="M88.3,70.64c-0.38,0.22-0.6,0.39-0.85,0.46c-0.09,0.02-0.28-0.21-0.42-0.33c0.21-0.17,0.41-0.38,0.65-0.49
		C87.77,70.24,87.99,70.45,88.3,70.64z"/>
	<path class="st2" d="M80.3,97.08c0.36-0.2,0.53-0.38,0.67-0.36c0.29,0.05,0.56,0.2,0.84,0.31c-0.16,0.14-0.31,0.41-0.47,0.41
		C81.07,97.42,80.8,97.26,80.3,97.08z"/>
	<path class="st2" d="M88.08,90.98c-0.37-0.39-0.64-0.66-0.88-0.95c-0.03-0.04,0.12-0.2,0.18-0.31c0.31,0.25,0.62,0.5,0.91,0.77
		C88.32,90.53,88.21,90.69,88.08,90.98z"/>
	<path class="st2" d="M89.69,89.12c-0.18,0.28-0.33,0.5-0.48,0.72c-0.12-0.15-0.36-0.31-0.34-0.43c0.04-0.24,0.22-0.47,0.35-0.7
		C89.35,88.83,89.49,88.95,89.69,89.12z"/>
	<path class="st2" d="M102.69,80.7c-0.16-0.27-0.36-0.46-0.31-0.57c0.07-0.19,0.29-0.33,0.45-0.49c0.16,0.16,0.48,0.35,0.45,0.47
		C103.24,80.3,102.96,80.44,102.69,80.7z"/>
	<path class="st2" d="M106.93,88.53c-0.23-0.2-0.44-0.34-0.57-0.52c-0.03-0.05,0.19-0.24,0.3-0.37c0.19,0.15,0.4,0.29,0.56,0.47
		C107.25,88.14,107.08,88.32,106.93,88.53z"/>
	<path class="st2" d="M89.59,75.85c-0.27,0.47-0.37,0.67-0.48,0.86c-0.13-0.13-0.35-0.25-0.36-0.38c-0.01-0.2,0.09-0.46,0.24-0.59
		C89.07,75.68,89.36,75.81,89.59,75.85z"/>
	<path class="st2" d="M94.22,81.61c0.48-0.24,0.65-0.41,0.8-0.39c0.22,0.03,0.42,0.2,0.63,0.32c-0.12,0.08-0.24,0.23-0.37,0.24
		C95.04,81.79,94.8,81.71,94.22,81.61z"/>
	<path class="st2" d="M78.98,83.92c-0.24-0.08-0.38-0.13-0.52-0.17c0.11-0.14,0.19-0.32,0.34-0.4c0.09-0.05,0.28,0.06,0.42,0.09
		C79.15,83.59,79.07,83.74,78.98,83.92z"/>
	<path class="st2" d="M81.95,71.97c0.23,0.36,0.47,0.72,0.69,1.09c0.01,0.01-0.14,0.1-0.21,0.16c-0.17-0.41-0.33-0.82-0.5-1.23
		L81.95,71.97z"/>
	<path class="st2" d="M83.1,82.32c-0.28,0.13-0.44,0.25-0.6,0.27c-0.11,0.01-0.24-0.13-0.36-0.21c0.14-0.1,0.28-0.25,0.44-0.29
		C82.68,82.06,82.83,82.19,83.1,82.32z"/>
	<path class="st2" d="M94.29,86.78c-0.17-0.1-0.28-0.16-0.38-0.23c0.14-0.19,0.26-0.38,0.43-0.55c0.03-0.03,0.22,0.09,0.34,0.14
		C94.56,86.34,94.44,86.53,94.29,86.78z"/>
	<path class="st2" d="M93.74,75.59c-0.22,0.12-0.44,0.24-0.66,0.34c-0.01,0.01-0.12-0.16-0.18-0.25c0.22-0.12,0.43-0.25,0.65-0.36
		C93.56,75.32,93.65,75.45,93.74,75.59z"/>
	<path class="st2" d="M220.32,95.92c-0.18-0.11-0.32-0.17-0.4-0.26c-0.03-0.03,0.07-0.21,0.13-0.22c0.14-0.02,0.28,0.03,0.43,0.05
		C220.43,95.62,220.39,95.74,220.32,95.92z"/>
</g>
</svg>
